<svg width="3172" height="1118" viewBox="0 0 3172 1118" fill="none" xmlns="http://www.w3.org/2000/svg">
<path d="M866.419 891.429H1006.38V334.319H866.419V891.429Z" fill="#B5C3C2"/>
<path d="M889.287 528.492H983.511V294.38H889.287V528.492Z" fill="#B5C3C2"/>
<path d="M910.267 398.902H962.53V269.044H910.267V398.902Z" fill="#B5C3C2"/>
<path d="M954.208 335.773H918.591V247.276H954.208V335.773Z" fill="#B5C3C2"/>
<path d="M934.053 297.236H930.189V208.739H934.053V297.236Z" fill="#B5C3C2"/>
<path d="M942.608 266.644H938.744V178.147H942.608V266.644" fill="#B5C3C2"/>
<path d="M1010.11 338.825H862.684V332.893H1010.11V338.825Z" fill="#B5C3C2"/>
<path d="M986.948 297.236H885.849V291.524H986.948V297.236Z" fill="#B5C3C2"/>
<path d="M964.721 271.025H906.457V266.644H964.721V271.025Z" fill="#B5C3C2"/>
<path d="M897.952 328.412H902.332V303.881H897.952V328.412Z" fill="#B5C3C2"/>
<path d="M910.072 328.412H910.267V303.881H910.072V328.412Z" fill="#B5C3C2"/>
<path d="M910.267 328.412H914.451V303.881H910.267V328.412Z" fill="#B5C3C2"/>
<path d="M922.192 328.412H926.572V303.881H922.192V328.412Z" fill="#B5C3C2"/>
<path d="M934.311 328.412H938.693V303.881H934.311V328.412Z" fill="#B5C3C2"/>
<path d="M946.431 328.412H950.812V303.881H946.431V328.412Z" fill="#B5C3C2"/>
<path d="M962.531 328.412H962.932V303.881H962.531V328.412Z" fill="#B5C3C2"/>
<path d="M958.552 328.412H962.531V303.881H958.552V328.412Z" fill="#B5C3C2"/>
<path d="M970.672 328.412H975.052V303.881H970.672V328.412Z" fill="#B5C3C2"/>
<path d="M889.287 385.636H878.703V356.532H889.287V385.636Z" fill="#B5C3C2"/>
<path d="M899.665 385.636H910.248V356.532H899.665V385.636Z" fill="#B5C3C2"/>
<path d="M931.211 385.636H920.627V356.532H931.211V385.636Z" fill="#B5C3C2"/>
<path d="M952.172 385.636H941.588V356.532H952.172V385.636Z" fill="#B5C3C2"/>
<path d="M973.133 385.636H962.549V356.532H973.133V385.636Z" fill="#B5C3C2"/>
<path d="M994.095 385.636H983.511V356.532H994.095V385.636Z" fill="#B5C3C2"/>
<path d="M889.287 431.001H878.703V401.899H889.287V431.001Z" fill="#B5C3C2"/>
<path d="M910.248 431.001H899.664V401.899H910.248V431.001Z" fill="#B5C3C2"/>
<path d="M931.211 431.001H920.627V401.899H931.211V431.001Z" fill="#B5C3C2"/>
<path d="M941.588 431.001H952.172V401.899H941.588V431.001Z" fill="#B5C3C2"/>
<path d="M973.133 431.001H962.549V401.899H973.133V431.001Z" fill="#B5C3C2"/>
<path d="M994.095 431.001H983.511V401.899H994.095V431.001Z" fill="#B5C3C2"/>
<path d="M889.287 476.369H878.703V447.265H889.287V476.369Z" fill="#B5C3C2"/>
<path d="M910.248 476.369H899.664V447.265H910.248V476.369Z" fill="#B5C3C2"/>
<path d="M931.211 476.369H920.627V447.265H931.211V476.369Z" fill="#B5C3C2"/>
<path d="M952.172 476.369H941.588V447.265H952.172V476.369Z" fill="#B5C3C2"/>
<path d="M962.549 476.369H973.134V447.266H962.549V476.369Z" fill="#B5C3C2"/>
<path d="M983.511 476.369H994.095V447.266H983.511V476.369Z" fill="#B5C3C2"/>
<path d="M878.703 521.734H889.286V492.63H878.703V521.734Z" fill="#B5C3C2"/>
<path d="M910.248 521.734H899.664V492.63H910.248V521.734Z" fill="#B5C3C2"/>
<path d="M931.211 521.734H920.627V492.63H931.211V521.734Z" fill="#B5C3C2"/>
<path d="M952.172 521.734H941.588V492.63H952.172V521.734Z" fill="#B5C3C2"/>
<path d="M973.133 521.734H962.549V492.63H973.133V521.734Z" fill="#B5C3C2"/>
<path d="M994.095 521.734H983.511V492.63H994.095V521.734Z" fill="#B5C3C2"/>
<path d="M889.287 567.101H878.703V537.997H889.287V567.101Z" fill="#B5C3C2"/>
<path d="M899.665 567.1H910.248V537.997H899.665V567.1Z" fill="#B5C3C2"/>
<path d="M931.211 567.101H920.627V537.997H931.211V567.101Z" fill="#B5C3C2"/>
<path d="M941.588 567.1H952.172V537.997H941.588V567.1Z" fill="#B5C3C2"/>
<path d="M973.133 567.101H962.549V537.997H973.133V567.101Z" fill="#B5C3C2"/>
<path d="M994.095 567.101H983.511V537.997H994.095V567.101Z" fill="#B5C3C2"/>
<path d="M889.287 612.467H878.703V583.363H889.287V612.467Z" fill="#B5C3C2"/>
<path d="M910.248 612.467H899.664V583.363H910.248V612.467Z" fill="#B5C3C2"/>
<path d="M931.211 612.467H920.627V583.363H931.211V612.467Z" fill="#B5C3C2"/>
<path d="M952.172 612.467H941.588V583.363H952.172V612.467Z" fill="#B5C3C2"/>
<path d="M973.133 612.467H962.549V583.363H973.133V612.467Z" fill="#B5C3C2"/>
<path d="M983.511 612.467H994.095V583.363H983.511V612.467Z" fill="#B5C3C2"/>
<path d="M889.287 657.833H878.703V628.728H889.287V657.833Z" fill="#B5C3C2"/>
<path d="M952.172 657.833H941.588V628.728H952.172V657.833Z" fill="#B5C3C2"/>
<path d="M973.133 657.833H962.549V628.728H973.133V657.833Z" fill="#B5C3C2"/>
<path d="M994.095 657.833H983.511V628.728H994.095V657.833Z" fill="#B5C3C2"/>
<path d="M889.287 703.199H878.703V674.095H889.287V703.199Z" fill="#B5C3C2"/>
<path d="M910.248 703.199H899.664V674.095H910.248V703.199Z" fill="#B5C3C2"/>
<path d="M931.211 703.199H920.627V674.095H931.211V703.199Z" fill="#B5C3C2"/>
<path d="M952.172 703.199H941.588V674.095H952.172V703.199Z" fill="#B5C3C2"/>
<path d="M962.549 703.199H973.134V674.095H962.549V703.199Z" fill="#B5C3C2"/>
<path d="M994.095 703.199H983.511V674.095H994.095V703.199Z" fill="#B5C3C2"/>
<path d="M889.287 748.564H878.703V719.46H889.287V748.564Z" fill="#B5C3C2"/>
<path d="M931.211 748.564H920.627V719.46H931.211V748.564Z" fill="#B5C3C2"/>
<path d="M952.172 748.564H941.588V719.46H952.172V748.564Z" fill="#B5C3C2"/>
<path d="M973.133 748.564H962.549V719.46H973.133V748.564Z" fill="#B5C3C2"/>
<path d="M994.095 748.564H983.511V719.46H994.095V748.564Z" fill="#B5C3C2"/>
<path d="M889.287 793.931H878.703V764.827H889.287V793.931Z" fill="#B5C3C2"/>
<path d="M910.248 793.931H899.664V764.827H910.248V793.931Z" fill="#B5C3C2"/>
<path d="M931.211 793.931H920.627V764.827H931.211V793.931Z" fill="#B5C3C2"/>
<path d="M941.588 793.931H952.172V764.827H941.588V793.931Z" fill="#B5C3C2"/>
<path d="M973.133 793.931H962.549V764.827H973.133V793.931Z" fill="#B5C3C2"/>
<path d="M983.511 793.931H994.095V764.827H983.511V793.931Z" fill="#B5C3C2"/>
<path d="M910.248 839.296H899.664V810.192H910.248V839.296Z" fill="#B5C3C2"/>
<path d="M952.172 839.296H941.588V810.192H952.172V839.296Z" fill="#B5C3C2"/>
<path d="M973.133 839.296H962.549V810.192H973.133V839.296Z" fill="#B5C3C2"/>
<path d="M994.095 839.296H983.511V810.192H994.095V839.296Z" fill="#B5C3C2"/>
<path d="M459.933 824.829H684.926V355.51H459.933V824.829Z" fill="#B5C3C2"/>
<path d="M691.317 360.708H453.54V347.441H691.317V360.708Z" fill="#B5C3C2"/>
<path d="M467.496 393.512H677.361V330.461H467.496V393.512Z" fill="#B5C3C2"/>
<path d="M566.664 373.553H483.56V304.664H566.664V373.553Z" fill="#B5C3C2"/>
<path d="M531.653 324.08H483.56V287.817H518.054L531.653 324.08Z" fill="#B5C3C2"/>
<path d="M502.945 338.491H507.607V257.716H502.945V338.491" fill="#B5C3C2"/>
<path d="M509.463 253.529C509.463 255.841 507.588 257.716 505.276 257.716C502.963 257.716 501.089 255.841 501.089 253.529C501.089 251.217 502.963 249.343 505.276 249.343C507.588 249.343 509.463 251.217 509.463 253.529Z" fill="#B5C3C2"/>
<path d="M1473.59 466.489V235.799H1434.96V174.007H1421.16V83.3789H1345.14V16.7709H1338.37V83.3789H1323.48V0.000150506H1316.71V83.3789H1268.65V235.799H1243.82V466.489H1222.54V886.669H1488.55V466.489H1473.59Z" fill="#B5C3C2"/>
<path d="M145.489 921.989H3088.13V851.989H145.489V921.989Z" fill="#B5C3C2"/>
<path d="M1877.62 904.829H1747.31L1798.08 643.906H1877.62V904.829Z" fill="#95A9A7"/>
<path d="M39.9106 1117.31H3129.54V915.002H39.9106V1117.31Z" fill="#95A9A7"/>
<path d="M1770.83 421.989V306.364H1728.99V262.344H1706.6V225.367H1698.75V161.979H1696.72V225.367H1688.86V262.344H1666.48V306.364H1624.96V421.989H1616.33V631.909H1551.95V871.203H1616.33H1680.71H1779.14V421.989H1770.83Z" fill="#95A9A7"/>
<path d="M2011.28 554.808H1808.76V558.489H1817.92V900.922H2002.11V558.489H2011.28V554.808Z" fill="#95A9A7"/>
<path d="M1087.82 925.349H908.271V640.102H1087.82V925.349Z" fill="#95A9A7"/>
<path d="M881.224 925.349H572.429V786.248H881.224V925.349Z" fill="#95A9A7"/>
<path d="M805.736 475.467H737.944V817.069H805.736V475.467Z" fill="#95A9A7"/>
<path d="M756.433 570.11H752.911V384.344H756.433V570.11Z" fill="#95A9A7"/>
<path d="M767.879 584.196H764.356V398.43H767.879V584.196Z" fill="#95A9A7"/>
<path d="M784.605 500.117H743.172V454.336H784.605V500.117Z" fill="#95A9A7"/>
<path d="M987.099 925.349H869.125V691.165H987.099V925.349Z" fill="#95A9A7"/>
<path d="M1116.93 925.349H1338.38V443.337H1116.93V925.349Z" fill="#95A9A7"/>
<path d="M1138.68 507.053H1316.62V426.77H1138.68V507.053Z" fill="#95A9A7"/>
<path d="M1355.55 459.057H1099.76V453.422H1355.55V459.057Z" fill="#95A9A7"/>
<path d="M1181.15 925.349H1076.8V681.921H1181.15V925.349Z" fill="#95A9A7"/>
<path d="M449.172 925.349H329.437V672.676H449.172V925.349Z" fill="#95A9A7"/>
<path d="M368.175 925.349H606.765V604.005H368.175V925.349Z" fill="#95A9A7"/>
<path d="M612.928 604.004H354.255V591.679H612.928V604.004Z" fill="#95A9A7"/>
<path d="M483.591 623.375H378.74V558.224H483.591V623.375Z" fill="#95A9A7"/>
<path d="M535.452 597.841H517.844V558.224H535.452V597.841" fill="#95A9A7"/>
<path d="M572.429 597.841H553.06V558.224H572.429V597.841Z" fill="#95A9A7"/>
<path d="M1316.62 925.349H2563.31V817.069H1316.62V925.349Z" fill="#95A9A7"/>
<path d="M1917.68 871.203H2025.68V727.865H1917.68V871.203Z" fill="#95A9A7"/>
<path d="M3066.83 962.963L3045.03 817.069H3000.42V696.003H3005.94V685.048H2984.27V637.892H2981.63V685.048H2966.67V646.417H2964.03V685.048H2873.8V696.003H2879.96V941.629H2776.96V831.603H2718.3V561.236H2723.66V547.969H2711.95V530.992H2698.46V524.609V505.192V488.345H2682.19V458.245H2680.23H2678.28V488.345H2669.51L2664.2 505.192H2628.71V530.992H2535.79V547.969H2524.07V561.236H2529.44V737.151H2451.7V909.989L2365.42 871.776V704.005H2379.34V691.68H2354.86V658.224H2250V691.68H2215.75V658.224H2198.15V691.68H2180.54V658.224H2161.16V691.68H2120.67V704.005H2126.83V936.536H2087.51V934.096H2080.39V867.829H2087.51V862.523H2080.39V796.253H2087.51V790.94H2080.39V724.673H2087.51V719.359H2080.39V653.095H2087.51V647.779H2080.39V581.515H2087.51V576.2H2080.39V507.623H2092.58V502.289H2098.79V487.751H1982.96V471.583H1986.74V466.912H1923.68V471.583H1927.44V487.751H1898.74V502.289H1904.95V507.623H1917.14V576.2H1910.03V581.515H1917.14V647.779H1910.03V653.095H1917.14V719.359H1910.03V724.673H1917.14V790.94H1910.03V796.253H1917.14V862.523H1910.03V867.829H1917.14V934.096H1910.03V939.416H1917.14V993.562H1877.62V784.317H1718.55V936.536H1692.72V462.347H1673.62V474.552L1638.36 483.176V475.248H1619.25V487.849L1583.99 496.475V487.381H1564.89V501.148L1529.63 509.772V502.272H1510.52V514.445L1475.27 523.069V516.608H1456.16V982.269H1429.28V734.012H1329.72V886.669H1227.65V756.491H1215.08V713.739H1222.54V709.444H1189.51V696.003H1185.99V709.444H1175.43V640.439H1172.79V709.444H1159.02V713.739H1167.12V756.491H1099.76V855.803H1034.18L999.929 982.269H931.211V569.339H840.223V554.548H845.393V549.356H776.479V554.548H781.897V569.339V593.132V875.936H738.995V769.084H754.247V759.409H646.295V694.857H625.7V681.593H579.735V694.857H542.331V925.349H419.629V754.401H316.307V889.429H226.645V975.816H161.995V867.216H76.9733V959.816H0V1117.31H76.9733H102.991H145.491H161.995H226.645H316.307H346.438H362.571H419.629H542.331H579.735H625.7H646.295H726.827H738.995H781.897H853.845H889.288H931.211H1099.76H1138.68H1204.39H1227.65H1331.46H1359.36H1456.16H1465.71H1475.27H1510.52H1529.63H1564.89H1580.86H1583.99H1619.25H1638.36H1668.67H1673.62H1683.17H1692.72H1718.55H1850.02H1868.8H1877.62H1917.14H1986.74H2050.44H2080.39H2126.83H2242.18H2364.15H2365.42H2451.7H2499.92H2529.44H2548.08H2692.44H2718.3H2749.2H2776.96H2879.96H2956.56H2972.24H3000.42H3171.8V962.963H3066.83" fill="#658280"/>
<path d="M553.06 719.46H560.928V711.592H553.06V719.46Z" fill="#B5C3C2"/>
<path d="M568.871 719.46H576.74V711.592H568.871V719.46Z" fill="#B5C3C2"/>
<path d="M553.06 737.947H560.928V730.078H553.06V737.947Z" fill="#B5C3C2"/>
<path d="M568.871 737.947H576.74V730.078H568.871V737.947Z" fill="#B5C3C2"/>
<path d="M553.06 755.82H560.928V747.952H553.06V755.82Z" fill="#B5C3C2"/>
<path d="M586.444 719.46H594.313V711.592H586.444V719.46Z" fill="#B5C3C2"/>
<path d="M1128.97 504.955H1134.34V475.248H1128.97V504.955Z" fill="#CAD4D3"/>
<path d="M1147.47 504.955H1152.84V475.248H1147.47V504.955Z" fill="#CAD4D3"/>
<path d="M1165.97 504.955H1171.34V475.248H1165.97V504.955Z" fill="#CAD4D3"/>
<path d="M1184.47 504.955H1189.83V475.248H1184.47V504.955Z" fill="#CAD4D3"/>
<path d="M1202.96 504.955H1208.33V475.248H1202.96V504.955Z" fill="#CAD4D3"/>
<path d="M1221.46 504.955H1226.82V475.248H1221.46V504.955Z" fill="#CAD4D3"/>
<path d="M1239.95 504.955H1245.32V475.248H1239.95V504.955Z" fill="#CAD4D3"/>
<path d="M1258.45 504.955H1263.82V475.248H1258.45V504.955Z" fill="#CAD4D3"/>
<path d="M1276.95 504.955H1282.31V475.248H1276.95V504.955Z" fill="#CAD4D3"/>
<path d="M1295.44 504.955H1300.81V475.248H1295.44V504.955Z" fill="#CAD4D3"/>
<path d="M1316.62 504.955H1319.31V475.248H1316.62V504.955Z" fill="#CAD4D3"/>
<path d="M1313.94 504.955H1316.62V475.248H1313.94V504.955Z" fill="#CAD4D3"/>
<path d="M1128.97 546.314H1134.34V516.608H1128.97V546.314Z" fill="#CAD4D3"/>
<path d="M1147.47 546.314H1152.84V516.608H1147.47V546.314Z" fill="#CAD4D3"/>
<path d="M1165.97 546.314H1171.34V516.608H1165.97V546.314Z" fill="#CAD4D3"/>
<path d="M1184.47 546.314H1189.83V516.608H1184.47V546.314Z" fill="#CAD4D3"/>
<path d="M1202.96 546.314H1208.33V516.608H1202.96V546.314Z" fill="#CAD4D3"/>
<path d="M1221.46 546.314H1226.82V516.608H1221.46V546.314Z" fill="#CAD4D3"/>
<path d="M1239.95 546.314H1245.32V516.608H1239.95V546.314Z" fill="#CAD4D3"/>
<path d="M1258.45 546.314H1263.82V516.608H1258.45V546.314Z" fill="#CAD4D3"/>
<path d="M1276.95 546.314H1282.31V516.608H1276.95V546.314Z" fill="#CAD4D3"/>
<path d="M1295.44 546.314H1300.81V516.608H1295.44V546.314Z" fill="#CAD4D3"/>
<path d="M1313.94 546.314H1319.31V516.608H1313.94V546.314Z" fill="#CAD4D3"/>
<path d="M1128.97 587.673H1134.34V557.967H1128.97V587.673Z" fill="#CAD4D3"/>
<path d="M1147.47 587.673H1152.84V557.967H1147.47V587.673Z" fill="#CAD4D3"/>
<path d="M1165.97 587.673H1171.34V557.967H1165.97V587.673Z" fill="#CAD4D3"/>
<path d="M1184.47 587.673H1189.83V557.967H1184.47V587.673Z" fill="#CAD4D3"/>
<path d="M1202.96 587.673H1208.33V557.967H1202.96V587.673Z" fill="#CAD4D3"/>
<path d="M1221.46 587.673H1226.82V557.967H1221.46V587.673Z" fill="#CAD4D3"/>
<path d="M1239.95 587.673H1245.32V557.967H1239.95V587.673Z" fill="#CAD4D3"/>
<path d="M1258.45 587.673H1263.82V557.967H1258.45V587.673Z" fill="#CAD4D3"/>
<path d="M1276.95 587.673H1282.31V557.967H1276.95V587.673Z" fill="#CAD4D3"/>
<path d="M1295.44 587.673H1300.81V557.967H1295.44V587.673Z" fill="#CAD4D3"/>
<path d="M1313.94 587.673H1319.31V557.967H1313.94V587.673Z" fill="#CAD4D3"/>
<path d="M1184.47 629.033H1189.83V599.325H1184.47V629.033Z" fill="#CAD4D3"/>
<path d="M1202.96 629.033H1208.33V599.325H1202.96V629.033Z" fill="#CAD4D3"/>
<path d="M1221.46 629.033H1226.82V599.325H1221.46V629.033Z" fill="#CAD4D3"/>
<path d="M1239.95 629.033H1245.32V599.325H1239.95V629.033Z" fill="#CAD4D3"/>
<path d="M1258.45 629.033H1263.82V599.325H1258.45V629.033Z" fill="#CAD4D3"/>
<path d="M1276.95 629.033H1282.31V599.325H1276.95V629.033Z" fill="#CAD4D3"/>
<path d="M1295.44 629.033H1300.81V599.325H1295.44V629.033Z" fill="#CAD4D3"/>
<path d="M1313.94 629.033H1319.31V599.325H1313.94V629.033Z" fill="#CAD4D3"/>
<path d="M1202.96 672.687H1208.33V642.978H1202.96V672.687Z" fill="#CAD4D3"/>
<path d="M1221.46 672.687H1226.82V642.978H1221.46V672.687Z" fill="#CAD4D3"/>
<path d="M1239.95 672.687H1245.32V642.978H1239.95V672.687Z" fill="#CAD4D3"/>
<path d="M1258.45 672.687H1263.82V642.978H1258.45V672.687Z" fill="#CAD4D3"/>
<path d="M1276.95 672.687H1282.31V642.978H1276.95V672.687Z" fill="#CAD4D3"/>
<path d="M1295.44 672.687H1300.81V642.978H1295.44V672.687Z" fill="#CAD4D3"/>
<path d="M1313.94 672.687H1319.31V642.978H1313.94V672.687Z" fill="#CAD4D3"/>
<path d="M1486.56 581.144H1499.24V548.984H1486.56V581.144Z" fill="#98ABAA"/>
<path d="M1486.56 642.657H1499.24V610.497H1486.56V642.657Z" fill="#98ABAA"/>
<path d="M1486.56 704.17H1499.24V672.011H1486.56V704.17Z" fill="#98ABAA"/>
<path d="M1486.56 765.684H1499.24V733.526H1486.56V765.684Z" fill="#98ABAA"/>
<path d="M1486.56 823.683H1499.24V791.519H1486.56V823.683Z" fill="#98ABAA"/>
<path d="M1486.56 885.189H1499.24V853.029H1486.56V885.189Z" fill="#98ABAA"/>
<path d="M1540.92 581.144H1553.6V548.984H1540.92V581.144Z" fill="#98ABAA"/>
<path d="M1540.92 642.657H1553.6V610.497H1540.92V642.657Z" fill="#98ABAA"/>
<path d="M1540.92 704.17H1553.6V672.011H1540.92V704.17Z" fill="#98ABAA"/>
<path d="M1540.92 765.684H1553.6V733.526H1540.92V765.684Z" fill="#98ABAA"/>
<path d="M1540.92 823.683H1553.6V791.519H1540.92V823.683Z" fill="#98ABAA"/>
<path d="M1540.92 885.189H1553.6V853.029H1540.92V885.189Z" fill="#98ABAA"/>
<path d="M1595.28 581.144H1607.96V548.984H1595.28V581.144Z" fill="#98ABAA"/>
<path d="M1595.28 642.657H1607.96V610.497H1595.28V642.657Z" fill="#98ABAA"/>
<path d="M1595.28 704.17H1607.96V672.011H1595.28V704.17Z" fill="#98ABAA"/>
<path d="M1595.28 765.684H1607.96V733.526H1595.28V765.684Z" fill="#98ABAA"/>
<path d="M1595.28 823.683H1607.96V791.519H1595.28V823.683Z" fill="#98ABAA"/>
<path d="M1595.28 885.189H1607.96V853.029H1595.28V885.189Z" fill="#98ABAA"/>
<path d="M1649.65 581.144H1662.33V548.984H1649.65V581.144Z" fill="#98ABAA"/>
<path d="M1649.65 642.657H1662.33V610.497H1649.65V642.657Z" fill="#98ABAA"/>
<path d="M1649.65 704.17H1662.33V672.011H1649.65V704.17Z" fill="#98ABAA"/>
<path d="M1649.65 765.684H1662.33V733.526H1649.65V765.684Z" fill="#98ABAA"/>
<path d="M1649.65 823.683H1662.33V791.519H1649.65V823.683Z" fill="#98ABAA"/>
<path d="M1649.65 885.189H1662.33V853.029H1649.65V885.189Z" fill="#98ABAA"/>
<path d="M1282.31 128.646H1292.86V100.502H1282.31V128.646Z" fill="#DAE1E1"/>
<path d="M1308.35 128.646H1318.9V100.502H1308.35V128.646Z" fill="#DAE1E1"/>
<path d="M1334.38 128.646H1344.93V100.502H1334.38V128.646Z" fill="#DAE1E1"/>
<path d="M1360.41 128.646H1370.96V100.502H1360.41V128.646Z" fill="#DAE1E1"/>
<path d="M1282.31 175.521H1292.86V147.378H1282.31V175.521Z" fill="#DAE1E1"/>
<path d="M1308.35 175.521H1318.9V147.378H1308.35V175.521Z" fill="#DAE1E1"/>
<path d="M1334.38 175.521H1344.93V147.378H1334.38V175.521Z" fill="#DAE1E1"/>
<path d="M1360.41 175.521H1370.96V147.378H1360.41V175.521Z" fill="#DAE1E1"/>
<path d="M1282.31 222.396H1292.86V194.252H1282.31V222.396Z" fill="#DAE1E1"/>
<path d="M1308.35 222.396H1318.9V194.252H1308.35V222.396Z" fill="#DAE1E1"/>
<path d="M1389.94 128.646H1400.49V100.502H1389.94V128.646Z" fill="#DAE1E1"/>
<path d="M579.735 411.438H586.444V393.512H579.735V411.438Z" fill="#D3DBDA"/>
<path d="M579.735 393.512H586.444V385.636H579.735V393.512Z" fill="#D3DBDA"/>
<path d="M603.409 411.438H610.119V393.512H603.409V411.438Z" fill="#D3DBDA"/>
<path d="M603.409 393.512H610.119V385.636H603.409V393.512Z" fill="#D3DBDA"/>
<path d="M631.101 411.438H637.811V393.512H631.101V411.438Z" fill="#D3DBDA"/>
<path d="M631.101 393.512H637.811V385.636H631.101V393.512Z" fill="#D3DBDA"/>
<path d="M654.777 411.438H661.485V393.512H654.777V411.438Z" fill="#D3DBDA"/>
<path d="M654.777 393.512H661.485V385.636H654.777V393.512Z" fill="#D3DBDA"/>
<path d="M527.14 411.438H533.848V393.512H527.14V411.438Z" fill="#D3DBDA"/>
<path d="M527.14 393.512H533.848V385.636H527.14V393.512Z" fill="#D3DBDA"/>
<path d="M550.815 411.438H557.524V393.512H550.815V411.438Z" fill="#D3DBDA"/>
<path d="M550.815 393.512H557.524V385.636H550.815V393.512Z" fill="#D3DBDA"/>
<path d="M579.735 456.237H586.444V430.436H579.735V456.237Z" fill="#D3DBDA"/>
<path d="M603.409 456.237H610.119V430.436H603.409V456.237Z" fill="#D3DBDA"/>
<path d="M631.101 456.237H637.811V430.436H631.101V456.237Z" fill="#D3DBDA"/>
<path d="M654.777 456.237H661.485V430.436H654.777V456.237Z" fill="#D3DBDA"/>
<path d="M527.14 456.237H533.848V430.436H527.14V456.237Z" fill="#D3DBDA"/>
<path d="M550.815 456.237H557.524V430.436H550.815V456.237Z" fill="#D3DBDA"/>
<path d="M579.735 501.039H586.444V475.238H579.735V501.039Z" fill="#D3DBDA"/>
<path d="M603.409 501.039H610.119V475.238H603.409V501.039Z" fill="#D3DBDA"/>
<path d="M631.101 501.039H637.811V475.238H631.101V501.039Z" fill="#D3DBDA"/>
<path d="M654.777 501.039H661.485V475.238H654.777V501.039Z" fill="#D3DBDA"/>
<path d="M527.14 501.039H533.848V475.238H527.14V501.039Z" fill="#D3DBDA"/>
<path d="M550.815 501.039H557.524V475.238H550.815V501.039Z" fill="#D3DBDA"/>
<path d="M1831.8 623.375H1842.19V583.363H1831.8V623.375Z" fill="#CAD4D3"/>
<path d="M1863.6 623.375H1874V583.363H1863.6V623.375Z" fill="#CAD4D3"/>
<path d="M1893.54 623.375H1903.94V583.363H1893.54V623.375Z" fill="#CAD4D3"/>
<path d="M1931.83 559.985H1940.31V524.904H1931.83V559.985Z" fill="#98ABAA"/>
<path d="M1974.02 559.985H1982.5V524.904H1974.02V559.985Z" fill="#98ABAA"/>
<path d="M2016.19 559.985H2021.66V524.904H2016.19V559.985Z" fill="#98ABAA"/>
<path d="M1931.83 632.187H1940.31V597.107H1931.83V632.187Z" fill="#98ABAA"/>
<path d="M1974.02 632.187H1982.5V597.107H1974.02V632.187Z" fill="#98ABAA"/>
<path d="M2016.19 632.187H2021.66V597.107H2016.19V632.187Z" fill="#98ABAA"/>
<path d="M1931.83 706.187H1940.31V671.105H1931.83V706.187Z" fill="#98ABAA"/>
<path d="M1974.02 706.187H1982.5V671.105H1974.02V706.187Z" fill="#98ABAA"/>
<path d="M2016.19 706.187H2021.66V671.105H2016.19V706.187Z" fill="#98ABAA"/>
<path d="M1931.83 780.185H1940.31V745.105H1931.83V780.185Z" fill="#98ABAA"/>
<path d="M1974.02 780.185H1982.5V745.105H1974.02V780.185Z" fill="#98ABAA"/>
<path d="M2016.19 780.185H2021.66V745.105H2016.19V780.185Z" fill="#98ABAA"/>
<path d="M1931.83 847.402H1940.31V812.321H1931.83V847.402Z" fill="#98ABAA"/>
<path d="M1974.02 847.402H1982.5V812.321H1974.02V847.402Z" fill="#98ABAA"/>
<path d="M2016.19 847.402H2021.66V812.321H2016.19V847.402Z" fill="#98ABAA"/>
<path d="M1931.83 922.376H1940.31V887.296H1931.83V922.376Z" fill="#98ABAA"/>
<path d="M1974.02 922.376H1982.5V887.296H1974.02V922.376Z" fill="#98ABAA"/>
<path d="M2016.19 922.376H2021.66V887.296H2016.19V922.376Z" fill="#98ABAA"/>
</svg>
