<svg width="361" height="114" viewBox="0 0 361 114" fill="none" xmlns="http://www.w3.org/2000/svg">
<path d="M361 30H0V84H361V30Z" fill="#20150B"/>
<path d="M0 36.75V30H22.5625L0 36.75Z" fill="#2F1F10"/>
<path d="M0 57V50.25H22.5625L0 57Z" fill="#2F1F10"/>
<path d="M0 50.25V43.5H22.5625L0 50.25Z" fill="#2F1F10"/>
<path d="M0 77.25V70.5H22.5625L0 77.25Z" fill="#2F1F10"/>
<path d="M0 84V77.25H22.5625L0 84Z" fill="#2F1F10"/>
<path d="M112.812 84V77.25H135.375L112.812 84Z" fill="#2F1F10"/>
<path d="M22.5625 43.5V36.75H45.125L22.5625 43.5Z" fill="#2F1F10"/>
<path d="M22.5625 57V50.25H45.125L22.5625 57Z" fill="#2F1F10"/>
<path d="M45.125 36.75V30H67.6875L45.125 36.75Z" fill="#2F1F10"/>
<path d="M22.5625 36.75V30H45.125L22.5625 36.75Z" fill="#2F1F10"/>
<path d="M67.6875 43.5V36.75H90.25L67.6875 43.5Z" fill="#2F1F10"/>
<path d="M45.125 43.5V57L90.25 43.5H45.125Z" fill="#2F1F10"/>
<path d="M90.25 36.75V30H112.812L90.25 36.75Z" fill="#2F1F10"/>
<path d="M90.25 43.5V36.75H112.812L90.25 43.5Z" fill="#2F1F10"/>
<path d="M90.25 57V50.25H112.812L90.25 57Z" fill="#2F1F10"/>
<path d="M67.6875 57V50.25H90.25L67.6875 57Z" fill="#2F1F10"/>
<path d="M90.25 70.5V63.75H112.812L90.25 70.5Z" fill="#2F1F10"/>
<path d="M112.812 50.25V43.5H135.375L112.812 50.25Z" fill="#2F1F10"/>
<path d="M90.25 70.5V84L135.375 70.5H90.25Z" fill="#2F1F10"/>
<path d="M112.812 57V70.5L157.937 57H112.812Z" fill="#2F1F10"/>
<path d="M135.375 30V43.5L180.5 30H135.375Z" fill="#2F1F10"/>
<path d="M157.938 50.25V43.5H180.5L157.938 50.25Z" fill="#2F1F10"/>
<path d="M157.938 57V50.25H180.5L157.938 57Z" fill="#2F1F10"/>
<path d="M135.375 70.5V84L180.5 70.5H135.375Z" fill="#2F1F10"/>
<path d="M180.5 36.75V30H203.062L180.5 36.75Z" fill="#2F1F10"/>
<path d="M157.938 57V70.5L203.062 57H157.938Z" fill="#2F1F10"/>
<path d="M180.5 70.5V63.75H203.062L180.5 70.5Z" fill="#2F1F10"/>
<path d="M135.375 50.25V43.5H157.937L135.375 50.25Z" fill="#2F1F10"/>
<path d="M180.5 77.25V84H203.062L225.625 77.25H180.5Z" fill="#2F1F10"/>
<path d="M180.5 36.75V57L248.187 36.75H180.5Z" fill="#2F1F10"/>
<path d="M248.188 57V50.25H270.75L248.188 57Z" fill="#2F1F10"/>
<path d="M203.062 57V77.25L270.75 57H203.062Z" fill="#2F1F10"/>
<path d="M22.5625 63.75V84L90.25 63.75H22.5625Z" fill="#2F1F10"/>
<path d="M248.188 70.5V63.75H270.75L248.188 70.5Z" fill="#2F1F10"/>
<path d="M225.625 70.5V84L270.75 70.5H225.625Z" fill="#2F1F10"/>
<path d="M248.188 30V43.5L293.312 30H248.188Z" fill="#2F1F10"/>
<path d="M270.75 50.25V43.5H293.312L270.75 50.25Z" fill="#2F1F10"/>
<path d="M293.312 36.75V30H315.875L293.312 36.75Z" fill="#2F1F10"/>
<path d="M293.312 50.25V43.5H315.875L293.312 50.25Z" fill="#2F1F10"/>
<path d="M270.75 57V50.25H293.312L270.75 57Z" fill="#2F1F10"/>
<path d="M293.312 63.75V57H315.875L293.312 63.75Z" fill="#2F1F10"/>
<path d="M270.75 63.75V77.25L315.875 63.75H270.75Z" fill="#2F1F10"/>
<path d="M248.188 77.25V84H293.312L315.875 77.25H248.188Z" fill="#2F1F10"/>
<path d="M315.875 36.75V30H338.437L315.875 36.75Z" fill="#2F1F10"/>
<path d="M315.875 43.5V36.75H338.437L315.875 43.5Z" fill="#2F1F10"/>
<path d="M315.875 57V50.25H338.437L315.875 57Z" fill="#2F1F10"/>
<path d="M315.875 63.75V57H338.437L315.875 63.75Z" fill="#2F1F10"/>
<path d="M315.875 77.25V70.5H338.437L315.875 77.25Z" fill="#2F1F10"/>
<path d="M338.438 43.5V57L361 50.25V43.5H338.438Z" fill="#2F1F10"/>
<path d="M338.438 70.5V63.75H361L338.438 70.5Z" fill="#2F1F10"/>
<path d="M315.875 77.25V84H338.437L361 77.25H315.875Z" fill="#2F1F10"/>
<path d="M0 36.75V30H22.5625L0 36.75Z" fill="#2F1F10"/>
<path d="M0 57V50.25H22.5625L0 57Z" fill="#2F1F10"/>
<path d="M0 50.25V43.5H22.5625L0 50.25Z" fill="#2F1F10"/>
<path d="M0 77.25V70.5H22.5625L0 77.25Z" fill="#2F1F10"/>
<path d="M0 84V77.25H22.5625L0 84Z" fill="#2F1F10"/>
<path d="M112.812 84V77.25H135.375L112.812 84Z" fill="#2F1F10"/>
<path d="M22.5625 43.5V36.75H45.125L22.5625 43.5Z" fill="#2F1F10"/>
<path d="M22.5625 57V50.25H45.125L22.5625 57Z" fill="#2F1F10"/>
<path d="M45.125 36.75V30H67.6875L45.125 36.75Z" fill="#2F1F10"/>
<path d="M22.5625 36.75V30H45.125L22.5625 36.75Z" fill="#2F1F10"/>
<path d="M67.6875 43.5V36.75H90.25L67.6875 43.5Z" fill="#2F1F10"/>
<path d="M45.125 43.5V57L90.25 43.5H45.125Z" fill="#2F1F10"/>
<path d="M90.25 36.75V30H112.812L90.25 36.75Z" fill="#2F1F10"/>
<path d="M90.25 43.5V36.75H112.812L90.25 43.5Z" fill="#2F1F10"/>
<path d="M90.25 57V50.25H112.812L90.25 57Z" fill="#2F1F10"/>
<path d="M67.6875 57V50.25H90.25L67.6875 57Z" fill="#2F1F10"/>
<path d="M90.25 70.5V63.75H112.812L90.25 70.5Z" fill="#2F1F10"/>
<path d="M112.812 50.25V43.5H135.375L112.812 50.25Z" fill="#2F1F10"/>
<path d="M90.25 70.5V84L135.375 70.5H90.25Z" fill="#2F1F10"/>
<path d="M112.812 57V70.5L157.937 57H112.812Z" fill="#2F1F10"/>
<path d="M135.375 30V43.5L180.5 30H135.375Z" fill="#2F1F10"/>
<path d="M157.938 50.25V43.5H180.5L157.938 50.25Z" fill="#2F1F10"/>
<path d="M157.938 57V50.25H180.5L157.938 57Z" fill="#2F1F10"/>
<path d="M135.375 70.5V84L180.5 70.5H135.375Z" fill="#2F1F10"/>
<path d="M180.5 36.75V30H203.062L180.5 36.75Z" fill="#2F1F10"/>
<path d="M157.938 57V70.5L203.062 57H157.938Z" fill="#2F1F10"/>
<path d="M180.5 70.5V63.75H203.062L180.5 70.5Z" fill="#2F1F10"/>
<path d="M135.375 50.25V43.5H157.937L135.375 50.25Z" fill="#2F1F10"/>
<path d="M180.5 77.25V84H203.062L225.625 77.25H180.5Z" fill="#2F1F10"/>
<path d="M180.5 36.75V57L248.187 36.75H180.5Z" fill="#2F1F10"/>
<path d="M248.188 57V50.25H270.75L248.188 57Z" fill="#2F1F10"/>
<path d="M203.062 57V77.25L270.75 57H203.062Z" fill="#2F1F10"/>
<path d="M22.5625 63.75V84L90.25 63.75H22.5625Z" fill="#2F1F10"/>
<path d="M248.188 70.5V63.75H270.75L248.188 70.5Z" fill="#2F1F10"/>
<path d="M225.625 70.5V84L270.75 70.5H225.625Z" fill="#2F1F10"/>
<path d="M248.188 30V43.5L293.312 30H248.188Z" fill="#2F1F10"/>
<path d="M270.75 50.25V43.5H293.312L270.75 50.25Z" fill="#2F1F10"/>
<path d="M293.312 36.75V30H315.875L293.312 36.75Z" fill="#2F1F10"/>
<path d="M293.312 50.25V43.5H315.875L293.312 50.25Z" fill="#2F1F10"/>
<path d="M270.75 57V50.25H293.312L270.75 57Z" fill="#2F1F10"/>
<path d="M293.312 63.75V57H315.875L293.312 63.75Z" fill="#2F1F10"/>
<path d="M270.75 63.75V77.25L315.875 63.75H270.75Z" fill="#2F1F10"/>
<path d="M248.188 77.25V84H293.312L315.875 77.25H248.188Z" fill="#2F1F10"/>
<path d="M315.875 36.75V30H338.437L315.875 36.75Z" fill="#2F1F10"/>
<path d="M315.875 43.5V36.75H338.437L315.875 43.5Z" fill="#2F1F10"/>
<path d="M315.875 57V50.25H338.437L315.875 57Z" fill="#2F1F10"/>
<path d="M315.875 63.75V57H338.437L315.875 63.75Z" fill="#2F1F10"/>
<path d="M315.875 77.25V70.5H338.437L315.875 77.25Z" fill="#2F1F10"/>
<path d="M338.438 43.5V57L361 50.25V43.5H338.438Z" fill="#2F1F10"/>
<path d="M338.438 70.5V63.75H361L338.438 70.5Z" fill="#2F1F10"/>
<path d="M315.875 77.25V84H338.437L361 77.25H315.875Z" fill="#2F1F10"/>
<path d="M0 36.75V30H22.5625L0 36.75Z" fill="#2F1F10"/>
<path d="M0 57V50.25H22.5625L0 57Z" fill="#2F1F10"/>
<path d="M0 50.25V43.5H22.5625L0 50.25Z" fill="#2F1F10"/>
<path d="M0 77.25V70.5H22.5625L0 77.25Z" fill="#2F1F10"/>
<path d="M0 84V77.25H22.5625L0 84Z" fill="#2F1F10"/>
<path d="M112.812 84V77.25H135.375L112.812 84Z" fill="#2F1F10"/>
<path d="M22.5625 43.5V36.75H45.125L22.5625 43.5Z" fill="#2F1F10"/>
<path d="M22.5625 57V50.25H45.125L22.5625 57Z" fill="#2F1F10"/>
<path d="M45.125 36.75V30H67.6875L45.125 36.75Z" fill="#2F1F10"/>
<path d="M22.5625 36.75V30H45.125L22.5625 36.75Z" fill="#2F1F10"/>
<path d="M67.6875 43.5V36.75H90.25L67.6875 43.5Z" fill="#2F1F10"/>
<path d="M45.125 43.5V57L90.25 43.5H45.125Z" fill="#2F1F10"/>
<path d="M90.25 36.75V30H112.812L90.25 36.75Z" fill="#2F1F10"/>
<path d="M90.25 43.5V36.75H112.812L90.25 43.5Z" fill="#2F1F10"/>
<path d="M90.25 57V50.25H112.812L90.25 57Z" fill="#2F1F10"/>
<path d="M67.6875 57V50.25H90.25L67.6875 57Z" fill="#2F1F10"/>
<path d="M90.25 70.5V63.75H112.812L90.25 70.5Z" fill="#2F1F10"/>
<path d="M112.812 50.25V43.5H135.375L112.812 50.25Z" fill="#2F1F10"/>
<path d="M90.25 70.5V84L135.375 70.5H90.25Z" fill="#2F1F10"/>
<path d="M112.812 57V70.5L157.937 57H112.812Z" fill="#2F1F10"/>
<path d="M135.375 30V43.5L180.5 30H135.375Z" fill="#2F1F10"/>
<path d="M157.938 50.25V43.5H180.5L157.938 50.25Z" fill="#2F1F10"/>
<path d="M157.938 57V50.25H180.5L157.938 57Z" fill="#2F1F10"/>
<path d="M135.375 70.5V84L180.5 70.5H135.375Z" fill="#2F1F10"/>
<path d="M180.5 36.75V30H203.062L180.5 36.75Z" fill="#2F1F10"/>
<path d="M157.938 57V70.5L203.062 57H157.938Z" fill="#2F1F10"/>
<path d="M180.5 70.5V63.75H203.062L180.5 70.5Z" fill="#2F1F10"/>
<path d="M135.375 50.25V43.5H157.937L135.375 50.25Z" fill="#2F1F10"/>
<path d="M180.5 77.25V84H203.062L225.625 77.25H180.5Z" fill="#2F1F10"/>
<path d="M180.5 36.75V57L248.187 36.75H180.5Z" fill="#2F1F10"/>
<path d="M248.188 57V50.25H270.75L248.188 57Z" fill="#2F1F10"/>
<path d="M203.062 57V77.25L270.75 57H203.062Z" fill="#2F1F10"/>
<path d="M22.5625 63.75V84L90.25 63.75H22.5625Z" fill="#2F1F10"/>
<path d="M248.188 70.5V63.75H270.75L248.188 70.5Z" fill="#2F1F10"/>
<path d="M225.625 70.5V84L270.75 70.5H225.625Z" fill="#2F1F10"/>
<path d="M248.188 30V43.5L293.312 30H248.188Z" fill="#2F1F10"/>
<path d="M270.75 50.25V43.5H293.312L270.75 50.25Z" fill="#2F1F10"/>
<path d="M293.312 36.75V30H315.875L293.312 36.75Z" fill="#2F1F10"/>
<path d="M293.312 50.25V43.5H315.875L293.312 50.25Z" fill="#2F1F10"/>
<path d="M270.75 57V50.25H293.312L270.75 57Z" fill="#2F1F10"/>
<path d="M293.312 63.75V57H315.875L293.312 63.75Z" fill="#2F1F10"/>
<path d="M270.75 63.75V77.25L315.875 63.75H270.75Z" fill="#2F1F10"/>
<path d="M248.188 77.25V84H293.312L315.875 77.25H248.188Z" fill="#2F1F10"/>
<path d="M315.875 36.75V30H338.437L315.875 36.75Z" fill="#2F1F10"/>
<path d="M315.875 43.5V36.75H338.437L315.875 43.5Z" fill="#2F1F10"/>
<path d="M315.875 57V50.25H338.437L315.875 57Z" fill="#2F1F10"/>
<path d="M315.875 63.75V57H338.437L315.875 63.75Z" fill="#2F1F10"/>
<path d="M315.875 77.25V70.5H338.437L315.875 77.25Z" fill="#2F1F10"/>
<path d="M338.438 43.5V57L361 50.25V43.5H338.438Z" fill="#2F1F10"/>
<path d="M338.438 70.5V63.75H361L338.438 70.5Z" fill="#2F1F10"/>
<path d="M315.875 77.25V84H338.437L361 77.25H315.875Z" fill="#2F1F10"/>
<path d="M0 36.75V30H22.5625L0 36.75Z" fill="#2F1F10"/>
<path d="M0 57V50.25H22.5625L0 57Z" fill="#2F1F10"/>
<path d="M0 50.25V43.5H22.5625L0 50.25Z" fill="#2F1F10"/>
<path d="M0 77.25V70.5H22.5625L0 77.25Z" fill="#2F1F10"/>
<path d="M0 84V77.25H22.5625L0 84Z" fill="#2F1F10"/>
<path d="M112.812 84V77.25H135.375L112.812 84Z" fill="#2F1F10"/>
<path d="M22.5625 43.5V36.75H45.125L22.5625 43.5Z" fill="#2F1F10"/>
<path d="M22.5625 57V50.25H45.125L22.5625 57Z" fill="#2F1F10"/>
<path d="M45.125 36.75V30H67.6875L45.125 36.75Z" fill="#2F1F10"/>
<path d="M22.5625 36.75V30H45.125L22.5625 36.75Z" fill="#2F1F10"/>
<path d="M67.6875 43.5V36.75H90.25L67.6875 43.5Z" fill="#2F1F10"/>
<path d="M45.125 43.5V57L90.25 43.5H45.125Z" fill="#2F1F10"/>
<path d="M90.25 36.75V30H112.812L90.25 36.75Z" fill="#2F1F10"/>
<path d="M90.25 43.5V36.75H112.812L90.25 43.5Z" fill="#2F1F10"/>
<path d="M90.25 57V50.25H112.812L90.25 57Z" fill="#2F1F10"/>
<path d="M67.6875 57V50.25H90.25L67.6875 57Z" fill="#2F1F10"/>
<path d="M90.25 70.5V63.75H112.812L90.25 70.5Z" fill="#2F1F10"/>
<path d="M112.812 50.25V43.5H135.375L112.812 50.25Z" fill="#2F1F10"/>
<path d="M90.25 70.5V84L135.375 70.5H90.25Z" fill="#2F1F10"/>
<path d="M112.812 57V70.5L157.937 57H112.812Z" fill="#2F1F10"/>
<path d="M135.375 30V43.5L180.5 30H135.375Z" fill="#2F1F10"/>
<path d="M157.938 50.25V43.5H180.5L157.938 50.25Z" fill="#2F1F10"/>
<path d="M157.938 57V50.25H180.5L157.938 57Z" fill="#2F1F10"/>
<path d="M135.375 70.5V84L180.5 70.5H135.375Z" fill="#2F1F10"/>
<path d="M180.5 36.75V30H203.062L180.5 36.75Z" fill="#2F1F10"/>
<path d="M157.938 57V70.5L203.062 57H157.938Z" fill="#2F1F10"/>
<path d="M180.5 70.5V63.75H203.062L180.5 70.5Z" fill="#2F1F10"/>
<path d="M135.375 50.25V43.5H157.937L135.375 50.25Z" fill="#2F1F10"/>
<path d="M180.5 77.25V84H203.062L225.625 77.25H180.5Z" fill="#2F1F10"/>
<path d="M180.5 36.75V57L248.187 36.75H180.5Z" fill="#2F1F10"/>
<path d="M248.188 57V50.25H270.75L248.188 57Z" fill="#2F1F10"/>
<path d="M203.062 57V77.25L270.75 57H203.062Z" fill="#2F1F10"/>
<path d="M22.5625 63.75V84L90.25 63.75H22.5625Z" fill="#2F1F10"/>
<path d="M248.188 70.5V63.75H270.75L248.188 70.5Z" fill="#2F1F10"/>
<path d="M225.625 70.5V84L270.75 70.5H225.625Z" fill="#2F1F10"/>
<path d="M248.188 30V43.5L293.312 30H248.188Z" fill="#2F1F10"/>
<path d="M270.75 50.25V43.5H293.312L270.75 50.25Z" fill="#2F1F10"/>
<path d="M293.312 36.75V30H315.875L293.312 36.75Z" fill="#2F1F10"/>
<path d="M293.312 50.25V43.5H315.875L293.312 50.25Z" fill="#2F1F10"/>
<path d="M270.75 57V50.25H293.312L270.75 57Z" fill="#2F1F10"/>
<path d="M293.312 63.75V57H315.875L293.312 63.75Z" fill="#2F1F10"/>
<path d="M270.75 63.75V77.25L315.875 63.75H270.75Z" fill="#2F1F10"/>
<path d="M248.188 77.25V84H293.312L315.875 77.25H248.188Z" fill="#2F1F10"/>
<path d="M315.875 36.75V30H338.437L315.875 36.75Z" fill="#2F1F10"/>
<path d="M315.875 43.5V36.75H338.437L315.875 43.5Z" fill="#2F1F10"/>
<path d="M315.875 57V50.25H338.437L315.875 57Z" fill="#2F1F10"/>
<path d="M315.875 63.75V57H338.437L315.875 63.75Z" fill="#2F1F10"/>
<path d="M315.875 77.25V70.5H338.437L315.875 77.25Z" fill="#2F1F10"/>
<path d="M338.438 43.5V57L361 50.25V43.5H338.438Z" fill="#2F1F10"/>
<path d="M338.438 70.5V63.75H361L338.438 70.5Z" fill="#2F1F10"/>
<path d="M315.875 77.25V84H338.437L361 77.25H315.875Z" fill="#2F1F10"/>
<ellipse cx="124" cy="85.5" rx="124" ry="28.5" fill="#20150B"/>
<path fill-rule="evenodd" clip-rule="evenodd" d="M110.007 58.1888V70.826L199.26 64.2583C208.94 66.1237 217.24 68.3425 223.768 70.826H197.157H110.007V77.2391L197.157 70.826V77.2391L232.064 74.6704C233.504 75.5067 234.76 76.3637 235.818 77.2391H197.157V83.6522V96.4781L231.404 93.958C229.847 94.8221 228.09 95.6631 226.148 96.4781H110.007V109.304L208.206 102.078C187.084 107.113 157.173 110.254 124.009 110.254C101.635 110.254 80.7417 108.825 63.0287 106.348L110.007 102.891H43.3747C41.6778 102.52 40.0311 102.138 38.437 101.745L110.007 96.4781H21.8705C17.674 94.7176 14.3467 92.8361 12.0181 90.8628L22.8565 90.0652V96.4781L197.157 83.6521H22.8565V90.0652H11.1367C9.17041 88.1575 8.13086 86.1697 8.13086 84.1272C8.13086 82.0507 9.20517 80.0309 11.2353 78.0943L22.8569 77.2391H12.2002C14.7023 75.1695 18.3046 73.2023 22.8565 71.3712V77.2391L110.007 70.826H24.2502C42.179 64.0049 73.4775 59.1808 110.007 58.1888ZM197.157 83.6522L238.832 80.5855C239.436 81.5907 239.786 82.614 239.869 83.6521L197.157 83.6522Z" fill="#2F1F10"/>
<ellipse cx="124" cy="28.5" rx="124" ry="28.5" fill="#20150B"/>
<path fill-rule="evenodd" clip-rule="evenodd" d="M110.007 1.18884V13.826L199.26 7.25825C208.94 9.12373 217.24 11.3425 223.768 13.826H197.157H110.007V20.2391L197.157 13.826V20.2391L232.064 17.6704C233.504 18.5067 234.76 19.3637 235.818 20.2391H197.157V26.6522V39.4781L231.404 36.958C229.847 37.8221 228.09 38.6631 226.148 39.4781H110.007V52.3042L208.206 45.0781C187.084 50.113 157.173 53.2543 124.009 53.2543C101.635 53.2543 80.7417 51.8245 63.0287 49.3481L110.007 45.8912H43.3747C41.6778 45.5205 40.0311 45.1381 38.437 44.7447L110.007 39.4781H21.8705C17.674 37.7176 14.3467 35.8361 12.0181 33.8628L22.8565 33.0652V39.4781L197.157 26.6521H22.8565V33.0652H11.1367C9.17041 31.1575 8.13086 29.1697 8.13086 27.1272C8.13086 25.0507 9.20517 23.0309 11.2353 21.0943L22.8569 20.2391H12.2002C14.7023 18.1695 18.3046 16.2023 22.8565 14.3712V20.2391L110.007 13.826H24.2502C42.179 7.00492 73.4775 2.18084 110.007 1.18884ZM197.157 26.6522L238.832 23.5855C239.436 24.5907 239.786 25.614 239.869 26.6521L197.157 26.6522Z" fill="#2F1F10"/>
<ellipse cx="222" cy="28" rx="124" ry="28" fill="#20150B"/>
<path fill-rule="evenodd" clip-rule="evenodd" d="M222.009 52.32C255.173 52.32 285.083 49.2339 306.206 44.2874L208.007 51.3866V38.7856H324.147C326.09 37.9848 327.847 37.1586 329.404 36.3097L295.157 38.7856V26.1846L337.869 26.1846C337.786 25.1647 337.436 24.1593 336.832 23.1718L295.157 26.1846V19.8841H333.818C332.76 19.0241 331.505 18.182 330.064 17.3605L295.157 19.8841V13.5836H321.768C315.24 11.1436 306.94 8.9637 297.261 7.13093L208.007 13.5835V1.16797C171.477 2.14257 140.179 6.88206 122.25 13.5836H208.007L120.856 19.8841V14.1191C116.304 15.918 112.702 17.8508 110.2 19.8841H120.857L109.235 20.7243C107.205 22.6269 106.131 24.6113 106.131 26.6512C106.131 28.658 107.17 30.611 109.137 32.4852H120.856V26.1846H295.157L120.856 38.7856V32.4852L110.018 33.2687C112.347 35.2075 115.674 37.056 119.871 38.7856H208.007L136.437 43.9597C138.031 44.3462 139.678 44.7219 141.375 45.0862H208.007L161.029 48.4824C178.742 50.9153 199.635 52.32 222.009 52.32ZM208.007 13.5836H295.157L208.007 19.8841V13.5836Z" fill="#2F1F10"/>
<ellipse cx="237" cy="30" rx="124" ry="28" fill="#20150B"/>
<path fill-rule="evenodd" clip-rule="evenodd" d="M237.009 54.32C270.173 54.32 300.083 51.2339 321.206 46.2874L223.007 53.3866V40.7856H339.147C341.09 39.9848 342.847 39.1586 344.404 38.3097L310.157 40.7856V28.1846L352.869 28.1846C352.786 27.1647 352.436 26.1593 351.832 25.1718L310.157 28.1846V21.8841H348.818C347.76 21.0241 346.505 20.182 345.064 19.3605L310.157 21.8841V15.5836H336.768C330.24 13.1436 321.94 10.9637 312.261 9.13093L223.007 15.5835V3.16797C186.477 4.14257 155.179 8.88206 137.25 15.5836H223.007L135.856 21.8841V16.1191C131.304 17.918 127.702 19.8508 125.2 21.8841H135.857L124.235 22.7243C122.205 24.6269 121.131 26.6113 121.131 28.6512C121.131 30.658 122.17 32.611 124.137 34.4852H135.856V28.1846H310.157L135.856 40.7856V34.4852L125.018 35.2687C127.347 37.2075 130.674 39.056 134.871 40.7856H223.007L151.437 45.9597C153.031 46.3462 154.678 46.7219 156.375 47.0862H223.007L176.029 50.4824C193.742 52.9153 214.635 54.32 237.009 54.32ZM223.007 15.5836H310.157L223.007 21.8841V15.5836Z" fill="#2F1F10"/>
<ellipse cx="124" cy="45" rx="124" ry="28" fill="#20150B"/>
<path fill-rule="evenodd" clip-rule="evenodd" d="M124.009 69.32C157.173 69.32 187.083 66.2339 208.206 61.2874L110.007 68.3866V55.7856H226.147C228.09 54.9848 229.847 54.1586 231.404 53.3097L197.157 55.7856V43.1846L239.869 43.1846C239.786 42.1647 239.436 41.1593 238.832 40.1718L197.157 43.1846V36.8841H235.818C234.76 36.0241 233.505 35.182 232.064 34.3605L197.157 36.8841V30.5836H223.768C217.24 28.1436 208.94 25.9637 199.261 24.1309L110.007 30.5835V18.168C73.4774 19.1426 42.1787 23.8821 24.25 30.5836H110.007L22.8564 36.8841V31.1191C18.3045 32.918 14.7022 34.8508 12.2001 36.8841H22.8569L11.2352 37.7243C9.20513 39.6269 8.13086 41.6113 8.13086 43.6512C8.13086 45.658 9.17044 47.611 11.1368 49.4852H22.8564V43.1846H197.157L22.8564 55.7856V49.4852L12.0182 50.2687C14.3468 52.2075 17.6742 54.056 21.8707 55.7856H110.007L38.4373 60.9597C40.0314 61.3462 41.6782 61.7219 43.3751 62.0862H110.007L63.0291 65.4824C80.742 67.9153 101.635 69.32 124.009 69.32ZM110.007 30.5836H197.157L110.007 36.8841V30.5836Z" fill="#2F1F10"/>
<ellipse cx="45" cy="32.5" rx="45" ry="21.5" fill="#20150B"/>
<path fill-rule="evenodd" clip-rule="evenodd" d="M45.0033 51.1743C57.0386 51.1743 67.8931 48.8046 75.5587 45.0063L39.9221 50.4576V40.7818L71.5491 40.7818L82.0697 40.7818C82.7747 40.1669 83.4121 39.5325 83.9773 38.8807L71.5491 40.7818V31.106H87.049C87.0192 30.3229 86.892 29.5509 86.6728 28.7926L71.5491 31.106V26.2681H85.5791C85.195 25.6078 84.7395 24.9612 84.2167 24.3304L71.5491 26.2681V21.4302H81.2061C78.8372 19.5567 75.8251 17.8829 72.3123 16.4756L39.922 21.4302V11.8969C26.6652 12.6452 15.3068 16.2844 8.80041 21.4302H39.9217L8.29468 26.2681V21.8414C6.64276 23.2228 5.33549 24.7069 4.42746 26.2681H8.29477L4.07729 26.9133C3.34055 28.3742 2.95068 29.8979 2.95068 31.4644C2.95068 33.0053 3.32795 34.5048 4.04154 35.944H8.29468L4.3614 36.5456C5.20646 38.0343 6.41393 39.4537 7.93685 40.7818H8.29468V35.944V31.106H71.5488L8.295 40.7818H39.9218L13.9489 44.7548C14.5274 45.0516 15.1251 45.3401 15.7409 45.6198H39.9217L22.8735 48.2276C29.3015 50.0957 36.8837 51.1743 45.0033 51.1743ZM39.9221 21.4302H71.5491L39.9221 26.2681V21.4302Z" fill="#2F1F10"/>
<ellipse cx="299" cy="83.5" rx="62" ry="16.5" fill="#20150B"/>
<path fill-rule="evenodd" clip-rule="evenodd" d="M299.005 97.8314C315.586 97.8314 330.541 96.0128 341.103 93.098L292.004 97.2815V89.8559H350.074C351.045 89.384 351.924 88.8971 352.702 88.3968L335.579 89.8558V82.4303V78.7175H354.909C354.38 78.2107 353.753 77.7145 353.032 77.2303L335.579 78.7174V75.0046H348.885C345.621 73.5668 341.471 72.2822 336.631 71.2021L292.004 75.0045V67.6882C273.739 68.2626 258.089 71.0555 249.125 75.0046H292.004L248.428 78.7174V75.3201C246.152 76.3803 244.351 77.5193 243.1 78.7175H248.429L242.618 79.2126C241.603 80.3337 241.066 81.5031 241.066 82.7052C241.066 83.8877 241.585 85.0386 242.569 86.143H248.428L243.009 86.6048C244.174 87.7473 245.837 88.8366 247.936 89.8559H292.004L256.219 92.9049C257.016 93.1327 257.84 93.354 258.688 93.5687H292.004L268.515 95.57C277.372 97.0037 287.818 97.8314 299.005 97.8314ZM248.428 89.8558V86.143V82.4302H335.579L248.428 89.8558ZM292.004 75.0046H335.579L292.004 78.7174V75.0046ZM356.416 80.6548C356.718 81.2368 356.893 81.8292 356.935 82.4302H335.58L356.416 80.6548Z" fill="#2F1F10"/>
<ellipse cx="254" cy="88.5" rx="62" ry="16.5" fill="#20150B"/>
<path fill-rule="evenodd" clip-rule="evenodd" d="M254.005 102.831C270.586 102.831 285.541 101.013 296.103 98.098L247.004 102.281V94.8559H305.074C306.045 94.384 306.924 93.8971 307.702 93.3968L290.579 94.8558V87.4303V83.7175H309.909C309.38 83.2107 308.753 82.7145 308.032 82.2303L290.579 83.7174V80.0046H303.885C300.621 78.5668 296.471 77.2822 291.631 76.2021L247.004 80.0045V72.6882C228.739 73.2626 213.089 76.0555 204.125 80.0046H247.004L203.428 83.7174V80.3201C201.152 81.3803 199.351 82.5193 198.1 83.7175H203.429L197.618 84.2126C196.603 85.3337 196.066 86.5031 196.066 87.7052C196.066 88.8877 196.585 90.0386 197.569 91.143H203.428L198.009 91.6048C199.174 92.7473 200.837 93.8366 202.936 94.8559H247.004L211.219 97.9049C212.016 98.1327 212.84 98.354 213.688 98.5687H247.004L223.515 100.57C232.372 102.004 242.818 102.831 254.005 102.831ZM203.428 94.8558V91.143V87.4302H290.579L203.428 94.8558ZM247.004 80.0046H290.579L247.004 83.7174V80.0046ZM311.416 85.6548C311.718 86.2368 311.893 86.8292 311.935 87.4302H290.58L311.416 85.6548Z" fill="#2F1F10"/>
</svg>
