<svg width="361" height="54" viewBox="0 0 361 54" fill="none" xmlns="http://www.w3.org/2000/svg">
<path d="M361 0H0V54H361V0Z" fill="#20150B"/>
<path d="M0 6.75V0H22.5625L0 6.75Z" fill="#2F1F10"/>
<path d="M0 27V20.25H22.5625L0 27Z" fill="#2F1F10"/>
<path d="M0 20.25V13.5H22.5625L0 20.25Z" fill="#2F1F10"/>
<path d="M0 47.25V40.5H22.5625L0 47.25Z" fill="#2F1F10"/>
<path d="M0 54V47.25H22.5625L0 54Z" fill="#2F1F10"/>
<path d="M112.812 54V47.25H135.375L112.812 54Z" fill="#2F1F10"/>
<path d="M22.5625 13.5V6.75H45.125L22.5625 13.5Z" fill="#2F1F10"/>
<path d="M22.5625 27V20.25H45.125L22.5625 27Z" fill="#2F1F10"/>
<path d="M45.125 6.75V0H67.6875L45.125 6.75Z" fill="#2F1F10"/>
<path d="M22.5625 6.75V0H45.125L22.5625 6.75Z" fill="#2F1F10"/>
<path d="M67.6875 13.5V6.75H90.25L67.6875 13.5Z" fill="#2F1F10"/>
<path d="M45.125 13.5V27L90.25 13.5H45.125Z" fill="#2F1F10"/>
<path d="M90.25 6.75V0H112.812L90.25 6.75Z" fill="#2F1F10"/>
<path d="M90.25 13.5V6.75H112.812L90.25 13.5Z" fill="#2F1F10"/>
<path d="M90.25 27V20.25H112.812L90.25 27Z" fill="#2F1F10"/>
<path d="M67.6875 27V20.25H90.25L67.6875 27Z" fill="#2F1F10"/>
<path d="M90.25 40.5V33.75H112.812L90.25 40.5Z" fill="#2F1F10"/>
<path d="M112.812 20.25V13.5H135.375L112.812 20.25Z" fill="#2F1F10"/>
<path d="M90.25 40.5V54L135.375 40.5H90.25Z" fill="#2F1F10"/>
<path d="M112.812 27V40.5L157.937 27H112.812Z" fill="#2F1F10"/>
<path d="M135.375 0V13.5L180.5 0H135.375Z" fill="#2F1F10"/>
<path d="M157.938 20.25V13.5H180.5L157.938 20.25Z" fill="#2F1F10"/>
<path d="M157.938 27V20.25H180.5L157.938 27Z" fill="#2F1F10"/>
<path d="M135.375 40.5V54L180.5 40.5H135.375Z" fill="#2F1F10"/>
<path d="M180.5 6.75V0H203.062L180.5 6.75Z" fill="#2F1F10"/>
<path d="M157.938 27V40.5L203.062 27H157.938Z" fill="#2F1F10"/>
<path d="M180.5 40.5V33.75H203.062L180.5 40.5Z" fill="#2F1F10"/>
<path d="M135.375 20.25V13.5H157.937L135.375 20.25Z" fill="#2F1F10"/>
<path d="M180.5 47.25V54H203.062L225.625 47.25H180.5Z" fill="#2F1F10"/>
<path d="M180.5 6.75V27L248.187 6.75H180.5Z" fill="#2F1F10"/>
<path d="M248.188 27V20.25H270.75L248.188 27Z" fill="#2F1F10"/>
<path d="M203.062 27V47.25L270.75 27H203.062Z" fill="#2F1F10"/>
<path d="M22.5625 33.75V54L90.25 33.75H22.5625Z" fill="#2F1F10"/>
<path d="M248.188 40.5V33.75H270.75L248.188 40.5Z" fill="#2F1F10"/>
<path d="M225.625 40.5V54L270.75 40.5H225.625Z" fill="#2F1F10"/>
<path d="M248.188 0V13.5L293.312 0H248.188Z" fill="#2F1F10"/>
<path d="M270.75 20.25V13.5H293.312L270.75 20.25Z" fill="#2F1F10"/>
<path d="M293.312 6.75V0H315.875L293.312 6.75Z" fill="#2F1F10"/>
<path d="M293.312 20.25V13.5H315.875L293.312 20.25Z" fill="#2F1F10"/>
<path d="M270.75 27V20.25H293.312L270.75 27Z" fill="#2F1F10"/>
<path d="M293.312 33.75V27H315.875L293.312 33.75Z" fill="#2F1F10"/>
<path d="M270.75 33.75V47.25L315.875 33.75H270.75Z" fill="#2F1F10"/>
<path d="M248.188 47.25V54H293.312L315.875 47.25H248.188Z" fill="#2F1F10"/>
<path d="M315.875 6.75V0H338.437L315.875 6.75Z" fill="#2F1F10"/>
<path d="M315.875 13.5V6.75H338.437L315.875 13.5Z" fill="#2F1F10"/>
<path d="M315.875 27V20.25H338.437L315.875 27Z" fill="#2F1F10"/>
<path d="M315.875 33.75V27H338.437L315.875 33.75Z" fill="#2F1F10"/>
<path d="M315.875 47.25V40.5H338.437L315.875 47.25Z" fill="#2F1F10"/>
<path d="M338.438 13.5V27L361 20.25V13.5H338.438Z" fill="#2F1F10"/>
<path d="M338.438 40.5V33.75H361L338.438 40.5Z" fill="#2F1F10"/>
<path d="M315.875 47.25V54H338.437L361 47.25H315.875Z" fill="#2F1F10"/>
</svg>
