<svg width="196" height="216" viewBox="0 0 196 216" fill="none" xmlns="http://www.w3.org/2000/svg">
<g id="RT">
<path id="RT_2" d="M59.472 158L39.312 120.56H36.288V158H8.064V56.48H52.56C60.72 56.48 67.632 57.92 73.296 60.8C78.96 63.584 83.232 67.472 86.112 72.464C88.992 77.36 90.432 82.88 90.432 89.024C90.432 95.936 88.512 102.032 84.672 107.312C80.928 112.496 75.408 116.192 68.112 118.4L91.008 158H59.472ZM36.288 101.264H50.256C54.096 101.264 56.976 100.352 58.896 98.528C60.816 96.704 61.776 94.064 61.776 90.608C61.776 87.344 60.768 84.8 58.752 82.976C56.832 81.056 54 80.096 50.256 80.096H36.288V101.264ZM179.731 56.48V78.944H152.659V158H124.435V78.944H97.6511V56.48H179.731Z" fill="black"/>
<g id="copyright-symbol-svgrepo-com 1">
<g id="Group">
<path id="Vector" d="M182.5 144.002C175.056 144.002 169 150.055 169 157.5C169 164.943 175.056 170.999 182.5 170.999C189.944 170.999 196 164.943 196 157.5C196 150.055 189.944 144.002 182.5 144.002ZM182.5 167.992C176.714 167.992 172.008 163.285 172.008 157.5C172.008 151.713 176.714 147.007 182.5 147.007C188.286 147.007 192.993 151.713 192.993 157.5C192.993 163.285 188.286 167.992 182.5 167.992Z" fill="black"/>
<path id="Vector_2" d="M186.931 159.945C186.068 161.425 184.465 162.343 182.746 162.343C180.077 162.343 177.902 160.169 177.902 157.5C177.902 154.828 180.077 152.654 182.746 152.654C184.465 152.654 186.068 153.575 186.931 155.052L187.042 155.245H190.296L190.1 154.721C189.534 153.222 188.541 151.946 187.226 151.036C185.908 150.124 184.359 149.639 182.746 149.639C178.412 149.639 174.888 153.167 174.888 157.5C174.888 161.834 178.412 165.358 182.746 165.358C184.359 165.358 185.908 164.875 187.226 163.961C188.541 163.051 189.534 161.776 190.1 160.276L190.296 159.752H187.042L186.931 159.945Z" fill="black"/>
</g>
</g>
</g>
</svg>
