<svg width="370" height="320" viewBox="0 0 370 320" fill="none" xmlns="http://www.w3.org/2000/svg">
<path d="M277.372 0.0253906H92.746L0.432999 159.916L92.746 319.807H277.372L369.685 159.916L277.372 0.0253906Z" fill="#FF6464"/>
<path d="M108.2 293.039H261.918L338.777 159.916L261.918 26.792H108.2L31.3412 159.916L108.2 293.039Z" fill="white"/>
<path d="M127.701 26.5947H125.701V109.15H127.701V26.5947Z" fill="#3F3D56"/>
<path d="M126.701 119.587C129.846 119.587 132.395 117.038 132.395 113.894C132.395 110.749 129.846 108.2 126.701 108.2C123.557 108.2 121.008 110.749 121.008 113.894C121.008 117.038 123.557 119.587 126.701 119.587Z" fill="#FF6464"/>
<path d="M170.402 26.5947H168.402V109.15H170.402V26.5947Z" fill="#3F3D56"/>
<path d="M169.402 119.587C172.546 119.587 175.095 117.038 175.095 113.894C175.095 110.749 172.546 108.2 169.402 108.2C166.258 108.2 163.709 110.749 163.709 113.894C163.709 117.038 166.258 119.587 169.402 119.587Z" fill="#3F3D56"/>
<path d="M245.366 26.5947H243.366V109.15H245.366V26.5947Z" fill="#3F3D56"/>
<path d="M244.366 119.587C247.51 119.587 250.059 117.038 250.059 113.894C250.059 110.749 247.51 108.2 244.366 108.2C241.221 108.2 238.672 110.749 238.672 113.894C238.672 117.038 241.221 119.587 244.366 119.587Z" fill="#3F3D56"/>
<path d="M213.052 201.194C216.196 201.194 218.745 198.644 218.745 195.5C218.745 192.356 216.196 189.807 213.052 189.807C209.907 189.807 207.358 192.356 207.358 195.5C207.358 198.644 209.907 201.194 213.052 201.194Z" fill="#3F3D56"/>
<path d="M97.2851 149.003C100.429 149.003 102.979 146.454 102.979 143.31C102.979 140.165 100.429 137.616 97.2851 137.616C94.1407 137.616 91.5917 140.165 91.5917 143.31C91.5917 146.454 94.1407 149.003 97.2851 149.003Z" fill="#3F3D56"/>
<path d="M214.052 190.755H212.052V91.2764H169.402V89.2764H214.052V190.755Z" fill="#3F3D56"/>
<path d="M139.986 237.252C143.13 237.252 145.679 234.703 145.679 231.559C145.679 228.414 143.13 225.865 139.986 225.865C136.842 225.865 134.292 228.414 134.292 231.559C134.292 234.703 136.842 237.252 139.986 237.252Z" fill="#FF6464"/>
<path d="M140.986 226.814H138.986V127.334H96.336V125.334H140.986V226.814Z" fill="#3F3D56"/>
<path d="M271.884 192.653C275.028 192.653 277.577 190.104 277.577 186.96C277.577 183.816 275.028 181.267 271.884 181.267C268.74 181.267 266.191 183.816 266.191 186.96C266.191 190.104 268.74 192.653 271.884 192.653Z" fill="#FF6464"/>
<path d="M272.884 182.215H270.884V82.7363H243.417V80.7363H272.884V182.215Z" fill="#3F3D56"/>
<path d="M98.285 137.616H96.285V88.1553H126.701V90.1553H98.285V137.616Z" fill="#3F3D56"/>
<path d="M169.876 259.551C173.021 259.551 175.57 257.002 175.57 253.858C175.57 250.713 173.021 248.164 169.876 248.164C166.732 248.164 164.183 250.713 164.183 253.858C164.183 257.002 166.732 259.551 169.876 259.551Z" fill="#3F3D56"/>
<path d="M170.876 248.164H168.876V200.703H140.46V198.703H170.876V248.164Z" fill="#3F3D56"/>
<path d="M242.468 217.324C245.612 217.324 248.161 214.775 248.161 211.631C248.161 208.487 245.612 205.938 242.468 205.938C239.323 205.938 236.774 208.487 236.774 211.631C236.774 214.775 239.323 217.324 242.468 217.324Z" fill="#3F3D56"/>
<path d="M243.468 205.938H241.468V156.477H271.884V158.477H243.468V205.938Z" fill="#3F3D56"/>
</svg>
