<svg width="879" height="474" viewBox="0 0 879 474" fill="none" xmlns="http://www.w3.org/2000/svg">
<style>
    #head {
        animation: headbob 1s ease-in-out infinite alternate;
        transform-origin: bottom;
    }
    #coffeeSteam1 {
        opacity: 0;
        animation: 5.5s opacity infinite;
    }
    #coffeeSteam2 {
        opacity: 0;
        animation: 5.5s opacity infinite;
    }
    #music-grp-1{
        opacity: 0;
        animation: 1.5s opacity infinite;
    }
    #music-grp-2{
        opacity: 0;
        animation: 1.5s opacity infinite;
    }
    #music-grp-3{
        opacity: 0;
        animation: 1.5s opacity infinite;
    }
    #music-grp-4{
        opacity: 0;
        animation: 1.5s opacity infinite;
    }
    @keyframes opacity {
        15% {opacity: 0} 
        35% {opacity: 1}
        65% {opacity: 1} 
        85% {opacity: 0}
        from{
            transform: rotateX(0deg);
        }
        to{
            transform: rotateX(10deg);
        }
    }
    @keyframes headbob {
        from{
            transform: rotateX(0deg);
        }
        to{
            transform: rotateX(10deg);
        }
    }
    #coffeeSteam2 {animation-delay: 0.5s}
    #coffeeSteam1 {animation-delay: 1.5s}
    #music-grp-1 {animation-delay: 0.5s}
    #music-grp-2 {animation-delay: 1.0s}
    #music-grp-3 {animation-delay: 1.5s}
    #music-grp-4 {animation-delay: 2.0s}

    </style>
<g id="coffeeboy">
<path id="coffeeSteam2" d="M703.798 348.006C701.725 334.302 701.177 320.418 702.164 306.597L703.798 283.724C694.794 301.299 696.829 324.43 703.798 348.006V348.006Z" fill="#CACACA"/>
<path id="coffeeSteam1" d="M710.819 351.833C709.821 343.655 709.558 335.407 710.033 327.184L710.819 313.57C706.487 324.031 707.466 337.799 710.819 351.833Z" fill="#CACACA"/>
<g id="coffee">
<path id="Vector" d="M742.028 368.67V376.323C742.025 376.931 741.777 377.513 741.339 377.943C740.901 378.373 740.307 378.615 739.688 378.619H735.787C735.684 378.618 735.583 378.638 735.488 378.676C735.393 378.714 735.307 378.771 735.234 378.842C735.162 378.913 735.104 378.998 735.065 379.091C735.026 379.184 735.006 379.283 735.007 379.384V442.135C735.004 442.743 734.756 443.325 734.318 443.755C733.88 444.185 733.286 444.428 732.666 444.431H685.079C684.459 444.431 683.864 444.189 683.425 443.758C682.986 443.328 682.739 442.744 682.739 442.135V379.384C682.738 379.181 682.656 378.987 682.51 378.843C682.363 378.7 682.165 378.619 681.959 378.619H677.278C676.657 378.618 676.062 378.376 675.624 377.946C675.185 377.515 674.938 376.932 674.938 376.323V368.67C674.937 368.369 674.997 368.07 675.115 367.791C675.232 367.512 675.405 367.259 675.622 367.046C675.84 366.833 676.098 366.664 676.382 366.548C676.666 366.433 676.971 366.374 677.278 366.374H739.688C740.308 366.376 740.902 366.619 741.34 367.049C741.779 367.479 742.026 368.062 742.028 368.67Z" fill="#847373"/>
<path id="Vector_2" d="M735.077 380.226H682.809V382.521H735.077V380.226Z" fill="#E6E6E6"/>
<path id="Vector_3" d="M735.007 414.008C717.517 421.108 699.836 421.186 681.959 414.008V397.834C699.169 392.164 717.796 392.164 735.007 397.834V414.008Z" fill="#E6E6E6"/>
</g>
<g id="body">
<path id="Vector_4" d="M594.085 275.696C591.654 261.349 589.146 246.727 582.349 233.802C577.882 225.337 570.79 217.269 561.23 215.596C559.347 215.431 557.497 215.011 555.732 214.347C552.931 213.023 515.289 191.945 509.307 188.274C504.17 185.122 496.061 179.286 491.972 179.286C487.859 179.198 472.086 182.799 410.524 178.078C410.524 178.078 393.612 184.617 380.526 192.546C380.328 192.418 316.63 225.972 314.237 225.883C309.705 225.696 305.493 228.543 302.895 232.127C300.297 235.711 299.079 240.149 297.803 244.439C311.716 274.832 324.445 305.264 338.359 335.657C339.011 336.802 339.357 338.089 339.365 339.4C339.086 340.761 338.494 342.041 337.634 343.144C330.811 353.895 331.028 367.419 331.773 380.056C332.519 392.693 333.442 406.041 327.685 417.367C326.119 420.477 324.082 423.323 322.593 426.433C319.105 433.476 317.845 456.003 319.882 463.57L575.11 470.742C569.622 455.945 594.085 275.696 594.085 275.696Z" fill="white"/>
<path id="Path 1421" d="M275.741 337.004C275.232 340.618 275.181 344.28 275.589 347.906L279.247 399.44C279.59 404.297 279.928 409.142 280.393 413.987C281.271 423.39 282.582 432.718 284.209 442.033C284.246 443.355 284.816 444.609 285.794 445.52C286.773 446.431 288.079 446.923 289.428 446.89C305.531 450.232 322.168 450.099 338.602 449.188C363.679 447.815 427.837 445.217 431.757 440.223C435.676 435.228 433.392 427.148 428.281 423.11C423.17 419.071 338.505 409.224 338.505 409.224C339.332 402.793 341.828 396.737 344.195 390.631C348.447 379.802 352.419 368.617 352.495 357.016C352.571 345.415 348.116 333.218 338.429 326.572C330.46 321.116 320.2 320.104 310.489 320.328C303.423 320.528 291.216 318.867 284.762 321.577C279.656 323.783 276.695 332.099 275.741 337.004Z" fill="#FBBEBE"/>
<path id="Path 1430" d="M297.067 245.364C295.827 246.638 294.866 248.146 294.242 249.798C283.952 272.545 277.874 296.909 276.293 321.747C276.321 322.958 276.037 324.157 275.466 325.231C274.904 325.946 274.277 326.61 273.595 327.216C273 327.908 272.55 328.708 272.27 329.571C271.99 330.434 271.886 331.342 271.964 332.244C272.042 333.146 272.301 334.024 272.725 334.828C273.149 335.632 273.73 336.346 274.435 336.93C274.551 337.026 274.67 337.118 274.791 337.206C276.892 333.329 281.919 332.062 286.388 331.725C307.786 330.064 328.688 339.829 350.15 339.093C348.635 333.96 346.457 329.028 345.223 323.834C339.761 300.77 353.382 275.659 345.032 253.445C343.364 248.999 340.577 244.629 336.185 242.681C334.367 241.961 332.464 241.467 330.521 241.21C325.098 240.249 314.302 236.14 309.059 237.789C307.124 238.401 306.361 240.186 304.756 241.265C302.32 242.792 299.087 243.353 297.067 245.364Z" fill="white"/>
<path id="Path 1421_2" d="M594.237 321.577C587.784 318.867 575.576 320.528 568.511 320.328C558.8 320.104 548.54 321.116 540.571 326.572C530.884 333.218 526.428 345.415 526.505 357.016C526.581 368.617 530.553 379.802 534.805 390.631C537.172 396.737 539.668 402.793 540.495 409.224C540.495 409.224 455.83 419.071 450.719 423.109C445.608 427.148 443.323 435.228 447.243 440.222C451.163 445.217 573.469 450.232 589.572 446.89C590.92 446.923 592.227 446.431 593.205 445.52C594.184 444.609 594.754 443.355 594.791 442.033C596.418 432.718 597.729 423.39 598.607 413.987C599.072 409.142 599.41 404.297 599.753 399.44L603.411 347.906C603.819 344.28 603.768 340.618 603.259 337.004C602.305 332.099 599.344 323.783 594.237 321.577Z" fill="#FBBEBE"/>
<path id="Path 1430_2" d="M574.244 241.265C572.639 240.186 571.876 238.401 569.941 237.789C564.698 236.14 553.902 240.249 548.479 241.21C546.536 241.467 544.633 241.961 542.815 242.681C538.424 244.629 535.636 248.999 533.968 253.445C525.618 275.659 539.239 300.77 533.777 323.834C532.543 329.028 530.365 333.96 528.85 339.093C550.312 339.829 571.214 330.064 592.612 331.725C597.081 332.062 602.108 333.329 604.209 337.206C604.33 337.118 604.449 337.026 604.565 336.93C605.27 336.346 605.851 335.632 606.275 334.828C606.699 334.024 606.958 333.146 607.036 332.244C607.114 331.342 607.01 330.434 606.73 329.571C606.451 328.709 606 327.908 605.405 327.216C604.723 326.61 604.097 325.946 603.534 325.231C602.963 324.157 602.679 322.958 602.707 321.747C601.126 296.909 595.048 272.545 584.758 249.798C584.134 248.146 583.173 246.638 581.933 245.364C579.913 243.353 576.68 242.792 574.244 241.265Z" fill="white"/>
<path id="Vector_5" d="M421.101 449.351C431.639 449.351 440.181 440.971 440.181 430.634C440.181 420.296 431.639 411.916 421.101 411.916C410.563 411.916 402.02 420.296 402.02 430.634C402.02 440.971 410.563 449.351 421.101 449.351Z" fill="#FBBEBE"/>
<path id="Vector_6" d="M463.351 449.351C473.889 449.351 482.432 440.971 482.432 430.634C482.432 420.296 473.889 411.916 463.351 411.916C452.813 411.916 444.27 420.296 444.27 430.634C444.27 440.971 452.813 449.351 463.351 449.351Z" fill="#FBBEBE"/>
<path id="Vector_7" d="M581.132 472.811H318.991C315.93 472.807 312.996 471.613 310.832 469.49C308.668 467.368 307.45 464.489 307.447 461.487V305.483C307.45 302.48 308.668 299.602 310.832 297.479C312.996 295.356 315.93 294.162 318.991 294.159H581.132C584.192 294.162 587.127 295.356 589.291 297.479C591.455 299.602 592.672 302.48 592.676 305.483V461.487C592.672 464.489 591.455 467.368 589.291 469.49C587.127 471.613 584.192 472.807 581.132 472.811Z" fill="#3F3D56"/>
<path id="Ellipse 263" d="M449.426 390.977C453.644 390.977 457.063 387.623 457.063 383.485C457.063 379.347 453.644 375.993 449.426 375.993C445.207 375.993 441.788 379.347 441.788 383.485C441.788 387.623 445.207 390.977 449.426 390.977Z" fill="white"/>
</g>
<g id="table">
<path id="Vector_8" d="M879 441.344H0V467.841H51.9919V474H827.028V467.841H879V441.344Z" fill="#F1F1F1"/>
</g>
<g id="head">
<path id="Ellipse 276" d="M442.038 166.711C481.083 166.711 512.734 135.662 512.734 97.362C512.734 59.0616 481.083 28.0129 442.038 28.0129C402.994 28.0129 371.343 59.0616 371.343 97.362C371.343 135.662 402.994 166.711 442.038 166.711Z" fill="#FEB8B8"/>
<path id="Path 1461" d="M508.069 37.5333C497.499 20.6968 480.955 8.29068 461.619 2.70299L452.94 8.91582V0.848638C448.297 0.151464 443.597 -0.117108 438.902 0.0464556L431.415 6.69247V0.598609C420.328 1.95004 409.647 5.54013 400.046 11.1425C390.444 16.7449 382.13 24.238 375.628 33.1494C359.367 56.1451 356.622 88.137 372.616 111.317C377.006 98.0813 382.335 85.6623 386.726 72.4278C390.177 72.8892 393.674 72.9059 397.129 72.4773L402.47 60.2508L403.963 71.9599C420.519 70.5454 445.076 67.4383 460.772 64.5919L459.245 55.6089L468.377 63.0732C473.185 61.9876 476.04 61.0023 475.805 60.2496C487.478 78.7102 501.764 90.5008 513.436 108.961C517.87 82.9309 522.972 61.2869 508.069 37.5333Z" fill="#2F2E41"/>
<path id="Vector_9" d="M377.029 123.21C365.67 123.21 356.461 113.443 356.461 101.395V90.4869C356.461 78.4386 365.67 68.6716 377.029 68.6716V123.21H377.029Z" fill="#FF6464"/>
<path id="Vector_10" d="M508.308 68.6717C519.668 68.6717 528.876 78.4387 528.876 90.4869V101.395C528.876 113.443 519.668 123.21 508.308 123.21V68.6717Z" fill="#FF6464"/>
<path id="Vector_11" d="M519.086 92.201H515.823C515.823 48.3044 482.152 12.5919 440.765 12.5919C399.378 12.5919 365.707 48.3045 365.707 92.201H362.444C362.444 46.3958 397.579 9.13062 440.765 9.13062C483.952 9.13063 519.086 46.3958 519.086 92.201Z" fill="#FF6464"/>
</g>
<g id="music-grp-2">
<path id="Vector_12" d="M589.791 138.485L589.793 138.487L592.341 135.472L603.183 122.777L607.069 118.227L606.178 117.501L590.595 104.796L575.893 121.995L575.765 122.069L573.033 119.73C572.803 119.455 572.547 119.203 572.27 118.975C570.2 117.287 567.284 118.311 566.09 119.775C564.897 121.239 565.607 123.794 567.678 125.482C569.72 127.147 572.973 127.184 574.207 125.779L574.209 125.782L576.757 122.766L585.143 112.346L600.136 124.57L600.854 123.69L585.855 111.461L586.892 110.173L601.949 122.449L601.816 122.604L591.476 134.7L591.349 134.774L588.617 132.436C588.386 132.161 588.131 131.908 587.854 131.68C585.784 129.992 582.868 131.017 581.674 132.481C580.481 133.945 581.191 136.5 583.262 138.188C585.304 139.853 588.557 139.889 589.791 138.485Z" fill="#F1F1F1"/>
<path id="Vector_13" d="M667.181 123.549L667.184 123.552L670.723 119.364L684.953 101.682L687.868 108.207C688.88 109.623 689.305 111.376 689.054 113.099C688.803 114.821 687.896 116.38 686.523 117.449L689.371 116.614C689.371 116.614 694.243 114.89 691.401 109.416C691.401 109.416 685.449 101.87 689.942 94.4049L669.522 118.292L669.345 118.396L665.551 115.148C665.231 114.766 664.876 114.415 664.491 114.098C661.616 111.754 657.566 113.177 655.908 115.21C654.25 117.243 655.237 120.792 658.113 123.137C660.949 125.449 665.467 125.499 667.181 123.549Z" fill="#F1F1F1"/>
</g>
<g id="music-grp-4">
<path id="Vector_14" d="M609.071 202.581C615.479 196.677 624.069 200.987 624.069 200.987C630.003 202.668 630.71 197.549 630.71 197.549L630.867 195.654C631.508 194.953 631.962 194.102 632.186 193.18L632.585 190.348C629.207 196.014 624.246 193.888 624.246 193.888L617.986 192.848L629.54 178.859L633.299 182.077C633.619 182.458 633.974 182.81 634.358 183.126C637.234 185.471 641.284 184.048 642.942 182.014C644.6 179.981 643.612 176.432 640.737 174.087C637.901 171.775 633.382 171.725 631.669 173.675L631.666 173.672L628.127 177.86L628.23 177.932L609.071 202.581ZM622.173 197.77L616.279 196.468C619.403 195.459 622.783 195.592 625.818 196.842C626.941 197.15 628.131 197.116 629.233 196.742C628.266 197.547 627.094 198.069 625.848 198.251C624.602 198.432 623.33 198.266 622.173 197.77L622.173 197.77Z" fill="#F1F1F1"/>
</g>
<g id="music-grp-1">
<path id="Vector_15" d="M242.366 67.458L242.37 67.4532L236.33 63.0051L210.899 45.1932L219.539 40.6194C219.539 40.6194 225.862 35.2279 232.277 41.6132L230.877 37.802C230.877 37.802 228.081 31.3089 220.867 35.687C220.867 35.687 211.111 44.4983 200.511 39.0466L234.977 64.7411L235.134 64.9734L231.046 70.4484C230.555 70.9204 230.108 71.4365 229.71 71.9903C226.773 76.1288 229.084 81.5274 232.01 83.6049C234.937 85.6824 239.691 84.0116 242.629 79.8731C245.527 75.791 245.184 69.6193 242.366 67.458Z" fill="#F1F1F1"/>
<path id="Vector_16" d="M240.521 164.297C228.517 152.897 235.601 136.068 235.601 136.068C238.037 124.604 228.242 123.912 228.242 123.912L224.63 123.854C223.221 122.727 221.55 121.975 219.773 121.667L214.354 121.268C225.522 126.956 222.12 136.63 222.12 136.63L220.941 148.628L192.959 128.495L198.583 120.963C199.266 120.307 199.887 119.59 200.439 118.821C204.52 113.073 201.309 105.575 197.244 102.69C193.18 99.8041 186.577 102.125 182.496 107.873C178.472 113.542 178.948 122.114 182.862 125.116L182.857 125.123L191.245 131.301L191.368 131.097L240.521 164.297ZM229.742 140.068L228.014 151.446C224.058 142.228 227.521 133.275 227.521 133.275C227.964 131.107 227.748 128.857 226.899 126.813C232.647 132.493 229.742 140.068 229.742 140.068L229.742 140.068Z" fill="#F1F1F1"/>
</g>
<g id="music-grp-3">
<path id="Vector_17" d="M286.575 193.297L284.201 196.477C283.915 196.751 283.655 197.051 283.425 197.373C281.718 199.777 283.061 202.913 284.761 204.12C286.461 205.327 289.223 204.356 290.929 201.952C292.613 199.581 292.413 195.995 290.776 194.74L290.779 194.737L287.27 192.153L275.178 183.684L287.538 166.274L286.516 165.548L274.152 182.965L272.657 181.918L285.069 164.433L285.25 164.568L299.33 175.065L299.422 175.2L297.047 178.381C296.761 178.655 296.502 178.955 296.271 179.277C294.564 181.681 295.907 184.817 297.607 186.024C299.307 187.23 302.069 186.26 303.775 183.856C305.459 181.484 305.26 177.899 303.622 176.644L303.625 176.641L300.117 174.057L285.804 163.397L285.804 163.396L285.34 163.051L280.043 159.106L266.463 178.235L286.484 193.162L286.575 193.297Z" fill="#F1F1F1"/>
</g>
</g>
</svg>
