<svg width="1116" height="833" viewBox="0 0 1116 833" fill="none" xmlns="http://www.w3.org/2000/svg">
    <g clip-path="url(#clip0)">
    <path d="M389.957 255.282H533.957" stroke="#3F3D56" stroke-width="2" stroke-miterlimit="10"/>
    <path d="M218.407 414.207C226.196 393.83 227.324 375.328 220.927 372.883C214.53 370.438 203.03 384.975 195.241 405.353C187.453 425.73 186.324 444.232 192.722 446.677C199.119 449.122 210.619 434.585 218.407 414.207Z" fill="#2F2E41"/>
    <path d="M1111.33 509.296C1127 625.885 1105.67 742.6 997.166 788.049C888.664 833.498 763.861 782.383 718.413 673.88C672.964 565.378 780.197 500.457 832.581 395.127C938.957 181.234 1062.69 147.231 1111.33 509.296Z" fill="#F2F2F2"/>
    <path d="M916 817.564C1009.89 817.564 1086 807.209 1086 794.436C1086 781.664 1009.89 771.309 916 771.309C822.112 771.309 746 781.664 746 794.436C746 807.209 822.112 817.564 916 817.564Z" fill="#3F3D56"/>
    <path d="M804.789 735.576L811.183 758.709L852.629 747.252L846.234 724.12L804.789 735.576Z" fill="#2F2E41"/>
    <path d="M807.645 762.799C811.638 761.696 812.488 752.17 809.545 741.524C806.602 730.878 800.98 723.142 796.988 724.245C792.995 725.349 792.145 734.874 795.087 745.521C798.03 756.167 803.653 763.903 807.645 762.799Z" fill="#2F2E41"/>
    <path d="M935.606 656.016C938.536 634.399 935.41 616.128 928.623 615.209C921.837 614.289 913.96 631.068 911.03 652.685C908.1 674.303 911.226 692.573 918.013 693.493C924.799 694.413 932.676 677.634 935.606 656.016Z" fill="#2F2E41"/>
    <path d="M915.585 807.299C959.215 807.299 994.585 771.93 994.585 728.299C994.585 684.669 959.215 649.299 915.585 649.299C871.954 649.299 836.585 684.669 836.585 728.299C836.585 771.93 871.954 807.299 915.585 807.299Z" fill="#2F2E41"/>
    <path d="M804.789 721.576L811.183 744.709L852.629 733.252L846.234 710.12L804.789 721.576Z" fill="#2F2E41"/>
    <path d="M807.645 748.799C811.638 747.696 812.488 738.17 809.545 727.524C806.602 716.878 800.98 709.142 796.988 710.245C792.995 711.349 792.145 720.874 795.087 731.521C798.03 742.167 803.653 749.903 807.645 748.799Z" fill="#2F2E41"/>
    <path d="M936.329 710.043C951.241 710.043 963.329 697.955 963.329 683.043C963.329 668.131 951.241 656.043 936.329 656.043C921.417 656.043 909.329 668.131 909.329 683.043C909.329 697.955 921.417 710.043 936.329 710.043Z" fill="white"/>
    <path d="M944.963 680.116C949.934 680.116 953.963 676.086 953.963 671.116C953.963 666.145 949.934 662.116 944.963 662.116C939.993 662.116 935.963 666.145 935.963 671.116C935.963 676.086 939.993 680.116 944.963 680.116Z" fill="#3F3D56"/>
    <path d="M1006.81 782.588C1036.05 781.124 1058.44 753.78 1056.82 721.511C1055.21 689.243 1030.2 664.271 1000.97 665.734C971.732 667.197 967.144 690.146 968.759 722.414C970.374 754.683 977.58 784.051 1006.81 782.588Z" fill="#0C3543"/>
    <path d="M883.298 694.874C878.54 695.258 873.825 693.736 870.189 690.644C866.553 687.551 864.294 683.142 863.909 678.384C863.524 673.627 865.045 668.911 868.136 665.274C871.227 661.638 875.636 659.378 880.393 658.991C890.302 658.189 893.005 666.056 893.807 675.964C894.609 685.873 893.206 694.072 883.298 694.874Z" fill="white"/>
    <path d="M49.464 361.025H491.957L560.56 394.447L669.866 447.699L741.334 313.887H943.574" stroke="#3F3D56" stroke-width="2" stroke-miterlimit="10"/>
    <path d="M222.811 388.711C230.37 388.711 236.497 382.584 236.497 375.025C236.497 367.467 230.37 361.34 222.811 361.34C215.253 361.34 209.126 367.467 209.126 375.025C209.126 382.584 215.253 388.711 222.811 388.711Z" fill="#0C3543"/>
    <path d="M350.541 374.711C358.1 374.711 364.227 368.584 364.227 361.025C364.227 353.467 358.1 347.34 350.541 347.34C342.983 347.34 336.856 353.467 336.856 361.025C336.856 368.584 342.983 374.711 350.541 374.711Z" fill="#0C3543"/>
    <path d="M560.384 408.164C567.942 408.164 574.069 402.037 574.069 394.478C574.069 386.92 567.942 380.793 560.384 380.793C552.825 380.793 546.698 386.92 546.698 394.478C546.698 402.037 552.825 408.164 560.384 408.164Z" fill="#0C3543"/>
    <path d="M855.379 327.572C862.937 327.572 869.064 321.445 869.064 313.887C869.064 306.329 862.937 300.202 855.379 300.202C847.821 300.202 841.694 306.329 841.694 313.887C841.694 321.445 847.821 327.572 855.379 327.572Z" fill="#0C3543"/>
    <path d="M712.443 380.793C720.001 380.793 726.129 374.666 726.129 367.108C726.129 359.55 720.001 353.422 712.443 353.422C704.885 353.422 698.758 359.55 698.758 367.108C698.758 374.666 704.885 380.793 712.443 380.793Z" fill="#0C3543"/>
    <path d="M427.576 596.196C435.725 596.196 442.331 589.59 442.331 581.441C442.331 573.292 435.725 566.685 427.576 566.685C419.426 566.685 412.82 573.292 412.82 581.441C412.82 589.59 419.426 596.196 427.576 596.196Z" stroke="#3F3D56" stroke-width="2" stroke-miterlimit="10"/>
    <path d="M170 832.564C263.888 832.564 340 822.209 340 809.436C340 796.664 263.888 786.309 170 786.309C76.1116 786.309 0 796.664 0 809.436C0 822.209 76.1116 832.564 170 832.564Z" fill="#3F3D56"/>
    <path d="M160.805 775.436C204.435 775.436 239.805 740.067 239.805 696.436C239.805 652.806 204.435 617.436 160.805 617.436C117.174 617.436 81.8046 652.806 81.8046 696.436C81.8046 740.067 117.174 775.436 160.805 775.436Z" fill="#2F2E41"/>
    <path d="M148.805 758.436H124.805V801.436H148.805V758.436Z" fill="#2F2E41"/>
    <path d="M196.805 758.436H172.805V801.436H196.805V758.436Z" fill="#2F2E41"/>
    <path d="M144.805 809.436C155.85 809.436 164.805 806.079 164.805 801.936C164.805 797.794 155.85 794.436 144.805 794.436C133.759 794.436 124.805 797.794 124.805 801.936C124.805 806.079 133.759 809.436 144.805 809.436Z" fill="#2F2E41"/>
    <path d="M192.805 808.436C203.85 808.436 212.805 805.079 212.805 800.936C212.805 796.794 203.85 793.436 192.805 793.436C181.759 793.436 172.805 796.794 172.805 800.936C172.805 805.079 181.759 808.436 192.805 808.436Z" fill="#2F2E41"/>
    <path d="M162.805 703.436C177.716 703.436 189.805 691.348 189.805 676.436C189.805 661.525 177.716 649.436 162.805 649.436C147.893 649.436 135.805 661.525 135.805 676.436C135.805 691.348 147.893 703.436 162.805 703.436Z" fill="white"/>
    <path d="M162.805 685.436C167.775 685.436 171.805 681.407 171.805 676.436C171.805 671.466 167.775 667.436 162.805 667.436C157.834 667.436 153.805 671.466 153.805 676.436C153.805 681.407 157.834 685.436 162.805 685.436Z" fill="#3F3D56"/>
    <path d="M84.1719 622.969C77.793 594.401 98.1838 565.535 129.716 558.494C161.248 551.453 191.981 568.904 198.36 597.471C204.739 626.039 183.841 636.575 152.309 643.616C120.777 650.657 90.5507 651.536 84.1719 622.969Z" fill="#0C3543"/>
    <path d="M133.805 548.436C177.435 548.436 212.805 513.067 212.805 469.436C212.805 425.806 177.435 390.436 133.805 390.436C90.1741 390.436 54.8046 425.806 54.8046 469.436C54.8046 513.067 90.1741 548.436 133.805 548.436Z" fill="#2F2E41"/>
    <path d="M121.805 531.436H97.8046V574.436H121.805V531.436Z" fill="#2F2E41"/>
    <path d="M169.805 531.436H145.805V574.436H169.805V531.436Z" fill="#2F2E41"/>
    <path d="M117.805 582.436C128.85 582.436 137.805 579.079 137.805 574.936C137.805 570.794 128.85 567.436 117.805 567.436C106.759 567.436 97.8046 570.794 97.8046 574.936C97.8046 579.079 106.759 582.436 117.805 582.436Z" fill="#2F2E41"/>
    <path d="M165.805 581.436C176.85 581.436 185.805 578.079 185.805 573.936C185.805 569.794 176.85 566.436 165.805 566.436C154.759 566.436 145.805 569.794 145.805 573.936C145.805 578.079 154.759 581.436 165.805 581.436Z" fill="#2F2E41"/>
    <path d="M135.805 476.436C150.716 476.436 162.805 464.348 162.805 449.436C162.805 434.525 150.716 422.436 135.805 422.436C120.893 422.436 108.805 434.525 108.805 449.436C108.805 464.348 120.893 476.436 135.805 476.436Z" fill="white"/>
    <path d="M135.805 458.436C140.775 458.436 144.805 454.407 144.805 449.436C144.805 444.466 140.775 440.436 135.805 440.436C130.834 440.436 126.805 444.466 126.805 449.436C126.805 454.407 130.834 458.436 135.805 458.436Z" fill="#3F3D56"/>
    <path d="M57.1719 395.969C50.793 367.401 71.1838 338.535 102.716 331.494C134.248 324.453 164.981 341.904 171.36 370.472C177.739 399.039 156.841 409.575 125.309 416.616C93.777 423.657 63.5507 424.536 57.1719 395.969Z" fill="#0C3543"/>
    <path d="M80.5136 449.707C83.4483 443.519 69.8488 430.925 50.1381 421.576C30.4274 412.228 12.0696 409.665 9.13486 415.853C6.20009 422.041 19.7997 434.636 39.5103 443.984C59.221 453.333 77.5788 455.895 80.5136 449.707Z" fill="#2F2E41"/>
    <path d="M95 497.936C95 505.668 114.909 520.936 137 520.936C159.091 520.936 179.805 499.168 179.805 491.436C179.805 483.704 159.091 492.936 137 492.936C114.909 492.936 95 490.204 95 497.936Z" fill="white"/>
    <path d="M961.603 564.71H835.474V628.871H961.603V564.71Z" fill="#0C3543"/>
    <path d="M951.732 575.129H825.603V639.29H951.732V575.129Z" stroke="#3F3D56" stroke-width="2" stroke-miterlimit="10"/>
    <path d="M262.603 199H226.603V235H262.603V199Z" fill="#F2F2F2"/>
    <path d="M253.603 187H217.603V223H253.603V187Z" stroke="#3F3D56" stroke-width="2" stroke-miterlimit="10"/>
    <path d="M906.052 268.47C949.682 268.47 985.052 233.101 985.052 189.47C985.052 145.84 949.682 110.47 906.052 110.47C862.422 110.47 827.052 145.84 827.052 189.47C827.052 233.101 862.422 268.47 906.052 268.47Z" fill="#2F2E41"/>
    <path d="M936.561 290.649L960.178 286.374L952.518 244.061L928.902 248.336L936.561 290.649Z" fill="#2F2E41"/>
    <path d="M889.332 299.204L912.948 294.928L905.288 252.616L881.672 256.891L889.332 299.204Z" fill="#2F2E41"/>
    <path d="M901.869 308.108C910.298 300.969 914.961 292.62 912.284 289.459C909.607 286.298 900.604 289.523 892.175 296.661C883.745 303.8 879.082 312.149 881.759 315.31C884.436 318.471 893.44 315.246 901.869 308.108Z" fill="#2F2E41"/>
    <path d="M948.117 299.736C956.546 292.597 961.209 284.248 958.532 281.087C955.855 277.926 946.852 281.151 938.423 288.289C929.994 295.428 925.331 303.777 928.008 306.938C930.685 310.099 939.688 306.874 948.117 299.736Z" fill="#2F2E41"/>
    <path d="M900.521 197.146C915.433 197.146 927.521 185.058 927.521 170.146C927.521 155.235 915.433 143.146 900.521 143.146C885.61 143.146 873.521 155.235 873.521 170.146C873.521 185.058 885.61 197.146 900.521 197.146Z" fill="white"/>
    <path d="M889.425 169.468C894.395 169.468 898.425 165.439 898.425 160.468C898.425 155.498 894.395 151.468 889.425 151.468C884.454 151.468 880.425 155.498 880.425 160.468C880.425 165.439 884.454 169.468 889.425 169.468Z" fill="#3F3D56"/>
    <path d="M968.372 103.527C969.56 74.2796 944.353 49.5072 912.071 48.1959C879.789 46.8846 852.656 69.5309 851.468 98.7779C850.28 128.025 872.72 134.67 905.002 135.981C937.285 137.293 967.184 132.774 968.372 103.527Z" fill="#0C3543"/>
    <path d="M871.608 183.903C873.138 177.227 857.141 167.865 835.877 162.991C814.613 158.117 796.135 159.577 794.605 166.252C793.075 172.928 809.072 182.29 830.336 187.164C851.6 192.038 870.078 190.578 871.608 183.903Z" fill="#2F2E41"/>
    <path d="M1026.68 209.691C1028.21 203.016 1012.21 193.653 990.951 188.779C969.687 183.905 951.209 185.366 949.679 192.041C948.149 198.716 964.146 208.079 985.41 212.953C1006.67 217.827 1025.15 216.367 1026.68 209.691Z" fill="#2F2E41"/>
    <path d="M927.749 220.603C928.171 222.929 928.129 225.315 927.628 227.625C927.127 229.935 926.176 232.124 924.829 234.066C923.482 236.009 921.766 237.667 919.778 238.946C917.79 240.225 915.57 241.1 913.244 241.522C910.918 241.943 908.532 241.901 906.222 241.4C903.912 240.899 901.723 239.948 899.78 238.601C897.838 237.254 896.18 235.538 894.901 233.55C893.621 231.562 892.746 229.342 892.325 227.016C890.554 217.234 898.118 213.772 907.9 212.001C917.682 210.23 925.979 210.821 927.749 220.603Z" fill="white"/>
    <path d="M712.603 99L803.603 169" stroke="#3F3D56" stroke-width="2" stroke-miterlimit="10"/>
    <path d="M669.603 136C707.159 136 737.603 105.555 737.603 68C737.603 30.4446 707.159 0 669.603 0C632.048 0 601.603 30.4446 601.603 68C601.603 105.555 632.048 136 669.603 136Z" fill="#F2F2F2"/>
    <path d="M905.954 674.787C908.884 653.17 905.758 634.9 898.972 633.98C892.185 633.06 884.309 649.839 881.379 671.456C878.449 693.074 881.575 711.344 888.361 712.264C895.148 713.184 903.024 696.405 905.954 674.787Z" fill="#2F2E41"/>
    <path d="M68.8114 799.711C76.3696 799.711 82.4968 793.584 82.4968 786.025C82.4968 778.467 76.3696 772.34 68.8114 772.34C61.2532 772.34 55.126 778.467 55.126 786.025C55.126 793.584 61.2532 799.711 68.8114 799.711Z" fill="#0C3543"/>
    <path d="M292.603 770H256.603V806H292.603V770Z" fill="#2F2E41"/>
    <path d="M256.811 807.711C264.37 807.711 270.497 801.584 270.497 794.025C270.497 786.467 264.37 780.34 256.811 780.34C249.253 780.34 243.126 786.467 243.126 794.025C243.126 801.584 249.253 807.711 256.811 807.711Z" fill="#0C3543"/>
    <path d="M461.957 268.711C469.515 268.711 475.642 262.584 475.642 255.025C475.642 247.467 469.515 241.34 461.957 241.34C454.399 241.34 448.271 247.467 448.271 255.025C448.271 262.584 454.399 268.711 461.957 268.711Z" fill="#0C3543"/>
    <path d="M727.721 685.788C731.33 685.788 734.256 682.862 734.256 679.252C734.256 675.643 731.33 672.717 727.721 672.717C724.111 672.717 721.185 675.643 721.185 679.252C721.185 682.862 724.111 685.788 727.721 685.788Z" fill="#F2F2F2"/>
    <path d="M759.739 787.725V713.313" stroke="#3F3D56" stroke-width="2" stroke-miterlimit="10"/>
    <path d="M759.739 723.836C765.551 723.836 770.262 719.125 770.262 713.313C770.262 707.502 765.551 702.79 759.739 702.79C753.928 702.79 749.217 707.502 749.217 713.313C749.217 719.125 753.928 723.836 759.739 723.836Z" fill="#3F3D56"/>
    <path d="M759.739 759.175C759.739 759.175 758.236 726.843 727.419 730.601Z" fill="#3F3D56"/>
    </g>
    <defs>
    <clipPath id="clip0">
    <rect width="1115.91" height="832.564" fill="white"/>
    </clipPath>
    </defs>
    </svg>
    