<svg width="888" height="468" viewBox="0 0 888 468" fill="none" xmlns="http://www.w3.org/2000/svg">
<path d="M887.772 457.775L252.263 467.356L0 422.646H393.817L887.772 457.775Z" fill="#E6E6E6"/>
<path d="M179.84 427.96C179.84 427.96 181.327 396.801 211.812 400.423Z" fill="#3F3D56"/>
<path d="M171.227 398.309C179.653 398.309 186.484 391.478 186.484 383.052C186.484 374.625 179.653 367.794 171.227 367.794C162.801 367.794 155.97 374.625 155.97 383.052C155.97 391.478 162.801 398.309 171.227 398.309Z" fill="white"/>
<path d="M173.051 408.744H168.744V438.891H173.051V408.744Z" fill="#3F3D56"/>
<path d="M682.287 433.283C682.287 433.283 683.774 402.124 714.258 405.746Z" fill="#3F3D56"/>
<path d="M673.673 403.631C682.1 403.631 688.93 396.8 688.93 388.374C688.93 379.948 682.1 373.117 673.673 373.117C665.247 373.117 658.416 379.948 658.416 388.374C658.416 396.8 665.247 403.631 673.673 403.631Z" fill="white"/>
<path d="M675.497 414.066H671.191V444.213H675.497V414.066Z" fill="#3F3D56"/>
<path d="M755.738 438.605C755.738 438.605 757.225 407.446 787.709 411.068Z" fill="#3F3D56"/>
<path d="M747.124 408.954C755.55 408.954 762.381 402.123 762.381 393.697C762.381 385.27 755.55 378.44 747.124 378.44C738.698 378.44 731.867 385.27 731.867 393.697C731.867 402.123 738.698 408.954 747.124 408.954Z" fill="white"/>
<path d="M748.948 419.389H744.642V449.536H748.948V419.389Z" fill="#3F3D56"/>
<path d="M300.129 413.057C300.129 413.057 301.616 381.898 332.101 385.52Z" fill="#3F3D56"/>
<path d="M291.516 383.406C299.942 383.406 306.773 376.575 306.773 368.148C306.773 359.722 299.942 352.891 291.516 352.891C283.09 352.891 276.259 359.722 276.259 368.148C276.259 376.575 283.09 383.406 291.516 383.406Z" fill="white"/>
<path d="M293.34 393.841H289.033V423.988H293.34V393.841Z" fill="#3F3D56"/>
<path d="M73.3898 418.38C73.3898 418.38 74.8768 387.221 105.361 390.843Z" fill="#3F3D56"/>
<path d="M64.7764 388.728C73.2027 388.728 80.0335 381.897 80.0335 373.471C80.0335 365.045 73.2027 358.214 64.7764 358.214C56.3501 358.214 49.5193 365.045 49.5193 373.471C49.5193 381.897 56.3501 388.728 64.7764 388.728Z" fill="white"/>
<path d="M66.6005 399.163H62.2938V429.31H66.6005V399.163Z" fill="#3F3D56"/>
<path d="M442.277 364.235C534.082 364.235 608.505 289.812 608.505 198.007C608.505 106.202 534.082 31.7789 442.277 31.7789C350.472 31.7789 276.049 106.202 276.049 198.007C276.049 289.812 350.472 364.235 442.277 364.235Z" fill="#3F3D56"/>
<path d="M337.626 211.351C341.754 206.408 346.918 202.433 352.751 199.705C358.584 196.977 364.946 195.563 371.385 195.563C377.825 195.563 384.187 196.977 390.02 199.705C395.853 202.433 401.017 206.408 405.145 211.351C412.209 204.607 417.092 195.902 419.163 186.358C421.235 176.814 420.401 166.868 416.769 157.803C413.136 148.737 406.872 140.967 398.783 135.494C390.694 130.021 381.152 127.096 371.385 127.096C361.619 127.096 352.077 130.021 343.988 135.494C335.899 140.967 329.635 148.737 326.002 157.803C322.37 166.868 321.536 176.814 323.607 186.358C325.679 195.902 330.562 204.607 337.626 211.351V211.351Z" fill="white"/>
<path d="M469.631 211.351C473.759 206.408 478.922 202.433 484.756 199.705C490.589 196.977 496.95 195.563 503.39 195.563C509.83 195.563 516.191 196.977 522.025 199.705C527.858 202.433 533.021 206.408 537.15 211.351C544.214 204.607 549.096 195.902 551.168 186.358C553.24 176.814 552.406 166.868 548.773 157.803C545.141 148.737 538.877 140.967 530.788 135.494C522.699 130.021 513.157 127.096 503.39 127.096C493.624 127.096 484.081 130.021 475.993 135.494C467.904 140.967 461.64 148.737 458.007 157.803C454.375 166.868 453.541 176.814 455.612 186.358C457.684 195.902 462.567 204.607 469.631 211.351Z" fill="white"/>
<path d="M354.707 176.157C363.996 176.157 371.525 168.627 371.525 159.339C371.525 150.051 363.996 142.521 354.707 142.521C345.419 142.521 337.889 150.051 337.889 159.339C337.889 168.627 345.419 176.157 354.707 176.157Z" fill="#3F3D56"/>
<path d="M486.707 176.157C495.996 176.157 503.525 168.627 503.525 159.339C503.525 150.051 495.996 142.521 486.707 142.521C477.419 142.521 469.889 150.051 469.889 159.339C469.889 168.627 477.419 176.157 486.707 176.157Z" fill="#3F3D56"/>
<path d="M322.495 259.12C333.295 259.12 342.051 250.365 342.051 239.564C342.051 228.764 333.295 220.008 322.495 220.008C311.694 220.008 302.939 228.764 302.939 239.564C302.939 250.365 311.694 259.12 322.495 259.12Z" fill="white"/>
<path d="M547.392 259.12C558.192 259.12 566.948 250.365 566.948 239.564C566.948 228.764 558.192 220.008 547.392 220.008C536.591 220.008 527.836 228.764 527.836 239.564C527.836 250.365 536.591 259.12 547.392 259.12Z" fill="white"/>
<path d="M434.943 200.451L420.276 264.009L444.721 239.564L434.943 200.451Z" fill="white"/>
<path d="M510.307 444.905L493.655 430.929L494.043 444.905H488.871L488.458 430.127L465.975 444.905H456.563L488.29 424.051L487.061 380.262L486.143 347.191L491.302 347.049L492.233 380.262L493.461 424.012L518.348 444.905H510.307Z" fill="#3F3D56"/>
<path d="M432.076 444.905L415.424 430.929L415.812 444.905H410.654L410.24 430.127L387.757 444.905H378.345L410.059 424.051L408.831 380.262L407.913 347.191L413.084 347.049L414.015 380.262L415.23 424.012L440.118 444.905H432.076Z" fill="#3F3D56"/>
<path d="M444.721 19.5562C440.16 19.5562 436.137 23.0992 433.447 28.5412C431.075 20.358 426.094 14.6672 420.276 14.6672C419.881 14.7065 419.488 14.7724 419.102 14.8644C416.866 6.12744 411.668 0 405.609 0C397.508 0 390.942 10.9446 390.942 24.4453C390.942 37.9461 397.508 48.8907 405.609 48.8907C406.004 48.8514 406.397 48.7855 406.783 48.6934C409.019 57.4304 414.217 63.5579 420.276 63.5579C424.837 63.5579 428.861 60.0149 431.551 54.5729C433.922 62.756 438.904 68.4469 444.721 68.4469C452.822 68.4469 459.389 57.5023 459.389 44.0015C459.389 30.5008 452.822 19.5562 444.721 19.5562Z" fill="#3F3D56"/>
<path d="M286.25 261C279.83 261 273.472 259.736 267.541 257.279C261.609 254.822 256.219 251.221 251.679 246.681C247.14 242.141 243.538 236.751 241.081 230.819C238.624 224.888 237.36 218.53 237.36 212.11V187.664C237.36 174.698 242.511 162.262 251.679 153.093C260.848 143.925 273.284 138.774 286.25 138.774V138.774V261Z" fill="white"/>
<path d="M598.303 138.774C604.724 138.774 611.081 140.038 617.013 142.495C622.945 144.952 628.334 148.553 632.874 153.093C637.414 157.633 641.016 163.023 643.473 168.955C645.93 174.886 647.194 181.244 647.194 187.664V212.11C647.194 218.53 645.93 224.888 643.473 230.819C641.016 236.751 637.414 242.141 632.874 246.681C628.334 251.22 622.945 254.822 617.013 257.279C611.081 259.736 604.724 261 598.304 261V261V138.774H598.303Z" fill="white"/>
<path d="M623.923 191.506H616.166C616.166 93.1283 536.13 13.0919 437.752 13.0919C339.375 13.0919 259.338 93.1283 259.338 191.506H251.581C251.581 88.8507 335.097 5.33484 437.752 5.33484C540.408 5.33484 623.923 88.8507 623.923 191.506Z" fill="white"/>
</svg>
