<svg width="1094" height="895" viewBox="0 0 1094 895" fill="none" xmlns="http://www.w3.org/2000/svg">
<path d="M48.0469 528.919L0 0L517.614 0.201874L469.971 528.516L258.403 588.271L48.0469 528.919ZM431.009 500.051L471.182 47.0375H259.211L260.826 546.684L431.009 500.051V500.051ZM239.427 113.455H187.948L187.342 384.577L87.413 357.323L87.6149 419.3L239.427 460.281V113.455V113.455Z" fill="#D4B830"/>
<path opacity="0.986" d="M87.6148 419.3L87.413 357.323C87.413 357.323 151.206 375.291 187.342 384.577L187.948 113.657H239.427V460.281L87.6148 419.3V419.3Z" fill="#EBEBEB" fill-opacity="0.9216"/>
<path d="M259.211 46.8359H471.182L431.009 499.849L259.211 546.483V46.8359ZM420.107 423.943L434.037 254.568L331.079 266.075V175.634L440.901 175.23L445.342 113.456L279.6 114.263L281.821 339.155L381.952 321.995L380.539 372.061L279.6 398.91L280.61 460.281L420.107 423.943Z" fill="#FDD83C"/>
<path d="M1094 3L1046.9 532.139L835.184 591L624.05 532.221L577 3H1094Z" fill="#264DE4"/>
<path d="M1006.58 498.445L1046.83 46.2715H835.5V546.009L1006.58 498.445Z" fill="#2965F1"/>
<path d="M684.861 242.554L690.662 307.46H835.5V242.554H684.861Z" fill="#EBEBEB"/>
<path d="M835.5 111.181H835.276H673.206L679.089 176.088H835.5V111.181Z" fill="#EBEBEB"/>
<path d="M835.5 478.653V411.123L835.216 411.198L763.134 391.679L758.526 339.913H723.499H693.554L702.622 441.826L835.202 478.736L835.5 478.653Z" fill="#EBEBEB"/>
<path d="M914.975 307.46L907.463 391.639L835.276 411.178V478.706L967.962 441.827L968.935 430.862L984.145 259.983L985.724 242.554L997.408 111.181H835.276V176.088H926.477L920.588 242.554H835.276V307.46H914.975Z" fill="white"/>
<path d="M334.026 836.4L287 307H804L756.974 836.114L545.073 895" fill="#E44D26"/>
<path d="M545.5 849.979V350.45H756.832L716.503 802.098" fill="#F16529"/>
<path d="M383.047 415.195H545.5V480.084H454.013L459.998 546.545H545.5V611.291H400.717L383.047 415.195ZM403.567 643.878H468.549L473.109 695.76L545.5 715.198V782.945L412.687 745.785" fill="#EBEBEB"/>
<path d="M707.383 415.195H545.215V480.084H701.398L707.383 415.195ZM695.555 546.545H545.215V611.434H625.016L617.464 695.76L545.215 715.198V782.66L677.743 745.785" fill="white"/>
</svg>
